<svg version="1.1" xmlns="http://www.w3.org/2000/svg" xmlns:xlink="http://www.w3.org/1999/xlink" x="0px" y="0px" width="512px" height="512px"><path class="st0" d="M94,400.4170837V150H40v-38h94v288.4170837H94z M39,400.4170837h38V172H0v38h39V400.4170837z M310.3146362,294.716095c-58.2848511-3.6039124-54.8647461-83.5261383,0-85.1431732c26.5905762,0.7904205,45.6705627,22.4055328,42.0280762,49.363205h39.0291748c3.5367432-44.4299011-31.5441284-86.2704163-81.057251-87.1897125c-101.8029022,1.0574188-113.492218,155.5456696,0,162.5470734L512,334.4894104V294.716095H310.3146362z M512,356.9802551H311.3328857c-141.3642426-6.9414062-134.5301056-204.6513519,0-207.5834656c56.9653625,0,105.4035339,45.3113098,103.692627,109.5393372h35.7595825C454.0202026,175.7998962,387.0529175,112,309.3898621,112c-183.6854553,6.9495163-190.330719,273.4984131,0,282.8222656H512V356.9802551z"/></svg>