<svg version="1.0" xmlns="http://www.w3.org/2000/svg"
 width="280.000000pt" height="280.000000pt" viewBox="0 0 280.000000 280.000000"
 preserveAspectRatio="xMidYMid meet">

<g transform="translate(0.000000,280.000000) scale(0.100000,-0.100000)"
>
<path d="M1145 2794 c-345 -26 -537 -68 -695 -150 -209 -109 -334 -295 -395
-589 -78 -375 -70 -1042 16 -1379 44 -173 130 -330 231 -421 211 -189 572
-265 1203 -252 467 10 722 62 909 188 206 137 310 343 362 718 21 150 30 629
15 816 -58 722 -279 972 -927 1050 -122 15 -604 28 -719 19z m397 -448 c62
-19 84 -31 140 -78 58 -48 103 -121 166 -269 49 -113 220 -503 332 -754 92
-208 106 -267 90 -372 -22 -145 -114 -268 -239 -320 -58 -24 -79 -27 -176 -27
-99 -1 -122 3 -235 37 -155 48 -258 52 -385 17 -192 -54 -222 -60 -284 -60
-131 1 -218 36 -307 125 -77 76 -105 143 -112 266 -6 117 -14 95 233 654 29
66 76 174 105 240 29 66 77 176 108 244 91 201 191 289 357 315 47 7 155 -3
207 -18z"/>
<path d="M1281 1653 c-63 -142 -143 -323 -178 -403 -36 -80 -78 -176 -95 -213
-16 -38 -29 -70 -27 -72 2 -2 42 10 89 25 112 38 191 50 330 50 139 0 218 -12
330 -50 47 -15 86 -27 88 -25 2 1 -8 27 -22 56 -14 30 -39 86 -55 124 -16 39
-60 142 -99 230 -38 88 -89 203 -111 255 -23 52 -50 113 -60 135 -10 22 -29
64 -41 93 -12 28 -25 52 -29 52 -3 0 -57 -116 -120 -257z"/>
</g>
</svg>
