<svg version="1.0" xmlns="http://www.w3.org/2000/svg"
 width="225.000000pt" height="225.000000pt" viewBox="0 0 225.000000 225.000000"
 preserveAspectRatio="xMidYMid meet">
<g transform="translate(0.000000,225.000000) scale(0.100000,-0.100000)"
stroke="none">
<path d="M0 1125 l0 -1125 1125 0 1125 0 0 1125 0 1125 -1125 0 -1125 0 0
-1125z m1698 2 c221 -442 402 -807 402 -811 0 -3 -367 -6 -815 -6 -448 0 -815
2 -815 4 0 2 29 63 65 134 36 72 65 133 65 136 0 3 -97 6 -215 6 -118 0 -215
4 -215 8 0 4 61 129 136 277 75 149 209 416 299 595 91 179 180 354 199 389
l34 64 106 -211 c59 -117 110 -212 114 -211 4 0 56 99 115 220 60 121 112 217
116 215 4 -3 188 -367 409 -809z"/>
<path d="M1176 1676 l-107 -213 216 -426 c118 -234 215 -431 215 -437 0 -7
-139 -10 -433 -10 l-433 0 -62 -122 -62 -123 772 -3 c424 -1 773 0 775 2 4 4
-764 1546 -770 1546 -2 0 -52 -96 -111 -214z"/>
</g>
</svg>