<?xml version="1.0" encoding="utf-8"?>
<!-- Generator: Adobe Illustrator 19.1.0, SVG Export Plug-In . SVG Version: 6.00 Build 0)  -->
<svg version="1.1" id="Collapsed" xmlns="http://www.w3.org/2000/svg" xmlns:xlink="http://www.w3.org/1999/xlink" x="0px" y="0px"
	 width="512px" height="512px" viewBox="0 0 512 512" style="enable-background:new 0 0 512 512;" xml:space="preserve">
<path d="M256,0C114.6151123,0,0,114.6151123,0,256s114.6151123,256,256,256s256-114.6151123,256-256S397.3848877,0,256,0z
	 M394.1992188,389.8251953c-5.6125488,2.5087891-14.0546265,3.6921387-19.930542,0.7542114l-160.4898071-88.9425659
	l113.7612305,0.2925415l-70.9551392-158.7877808L152.8549805,377.1318359C147.375,390.125,135.2155151,395.4790039,121.125,390.75
	c-18.25-6.125-19.5756836-21.2597656-13.9799805-33.8818359L222.2006836,97.3295898
	c0.0229492-0.0512695,0.0454102-0.1020508,0.0683594-0.152832c6.1655273-13.6601562,19.840332-22.3583984,34.8168945-22.1289062
	c14.8505859,0.215332,28.1533203,9.1328125,34.0048828,22.7568359l115.734375,258.9960938
	C412.4580078,369.40625,406.8056641,384.1914062,394.1992188,389.8251953z"/>
</svg>
