<svg width="49" height="64" viewBox="0 0 49 64" fill="none" xmlns="http://www.w3.org/2000/svg">
<path fill-rule="evenodd" clip-rule="evenodd" d="M0.12793 4C0.12793 1.79086 1.91879 0 4.12793 0H32.1279L48.1279 16V60C48.1279 62.2091 46.3371 64 44.1279 64H4.12793C1.91879 64 0.12793 62.2091 0.12793 60V4ZM28.1279 4L44.1279 20H28.1279V4ZM40.1279 42C40.1279 42.7224 40.0732 43.432 39.9677 44.1249H23.9114L14.6629 28.0061C14.6938 28.0041 14.7248 28.0025 14.756 28.0015C14.7862 28.0005 14.8166 28 14.8471 28H26.1279C33.8599 28 40.1279 34.268 40.1279 42ZM12.1279 33.1646V44.1249H18.4167L12.1279 33.1646ZM12.1279 53.2809V48.8908H21.1512L25.2303 56H14.8471C13.3453 56 12.1279 54.7826 12.1279 53.2809ZM26.646 48.8908L30.3528 55.3512C33.7519 54.2766 36.5902 51.9398 38.3175 48.8908H26.646Z" fill="#1F8197"/>
</svg>
