<?xml version="1.0" encoding="utf-8"?>
<!-- Generator: Adobe Illustrator 19.1.0, SVG Export Plug-In . SVG Version: 6.00 Build 0)  -->
<svg version="1.1" id="Layer_1" xmlns="http://www.w3.org/2000/svg" xmlns:xlink="http://www.w3.org/1999/xlink" x="0px" y="0px"
	 width="256px" height="256px" viewBox="-127 129 256 256" style="enable-background:new -127 129 256 256;" xml:space="preserve">
<g>
	<path d="M-127,257c0-70.6925049,57.3074951-128,128-128s128,57.3074951,128,128S71.6925049,385,1,385S-127,327.6925049-127,257z
		 M1,154.5c-56.6092529,0-102.5,45.8907471-102.5,102.5S-55.6092529,359.5,1,359.5S103.5,313.6092529,103.5,257
		S57.6092529,154.5,1,154.5L1,154.5z"/>
	<path d="M-16.3495026,210.3000031L-76.4095001,295h34.3000031l43.9599915-62.1600037L28,270.9200134l-40.0094986-0.0000305
		L-29.5094986,295H79.4105072l0,0c0,0-52.7479744-76.3323212-58.5200043-84.6999969s-10.5977087-9.8858643-17.8091164-10.4280701
		C-9.5426531,198.92276-16.3495026,210.3000031-16.3495026,210.3000031z"/>
</g>
</svg>
