<?xml version="1.0" encoding="utf-8"?>
<!-- Generator: Adobe Illustrator 19.2.1, SVG Export Plug-In . SVG Version: 6.00 Build 0)  -->
<svg version="1.1" xmlns="http://www.w3.org/2000/svg" xmlns:xlink="http://www.w3.org/1999/xlink" x="0px" y="0px"
	 width="512px" height="512px" viewBox="0 0 512 512" style="enable-background:new 0 0 512 512;" xml:space="preserve">
<path d="M449.4992676,177.2926483L289.102356,54.1051254c-10.5066528-8.0675964-28.1593018-8.0314255-39.6957245,0.0432281
	c-11.6811066,8.1575813-13.0271759,21.6817932-2.6470337,30.2099152l66.7076569,54.2856674l-203.6734619,0.0002289
	c-16.8124084,0.0070496-32.9743958,11.2650146-36.1634521,25.2135925
	c-3.2974625,14.201767,8.1144104,25.8479614,25.5953369,25.9022217l103.0806656-0.0002594L17.6315975,331.506134
	c-17.3544369,13.2802734-22.9556332,35.3868713-12.024416,49.362793
	c11.0848351,14.228241,34.6818542,14.2555847,52.2170372,0.0794067l100.4048004-82.1651611
	c0,0-1.4731598,11.0837402-1.3557129,17.7419739c3.0185699,56.2037354,45.8679657,108.3059692,98.9225769,131.3808289
	c91.4195404,40.492218,214.8487701,3.4240417,249.5575714-102.1027832
	C521.8587036,290.4483643,509.2049255,224.6224518,449.4992676,177.2926483z M279.4641418,373.5093384
	c-72.2036285-37.7927246-72.2036438-132.7875366-0.0000305-170.5802612s162.9481812,9.7046661,162.9481812,85.2901306
	S351.6677551,411.302063,279.4641418,373.5093384z M301.4525757,339.4995117
	c-46.0544739-24.0875549-46.0544891-84.6333313-0.0000305-108.7208557s103.9351196,6.1853485,103.9351196,54.3604126
	S347.507019,363.5870361,301.4525757,339.4995117z"/>
</svg>
