<svg version="1.1" xmlns="http://www.w3.org/2000/svg" xmlns:xlink="http://www.w3.org/1999/xlink" x="0px" y="0px" width="494px" height="512px"><path d="M442.9309082,203.1722412c-39.7618408-20.7041016-85.2878418-62.6729126-74.1575317-123.3004761c8.2698975-11.4697876,19.8566895-22.9882202,35.8175049-35.0908203c-29.8675537-3.5032959-61.6259766,1.8931274-91.8662109,13.5129395c-0.4702148-15.7072754,1.4480591-32.5405273,6.3648682-52.260437c-28.9879761,7.3938599-56.5656738,23.6831665-80.5464478,45.2015381C232.4406128,36.7020874,228.1903076,20.2423706,225.7058716,0c-24.5429077,17.3834229-44.5351562,42.647522-59.2338257,71.5213013c-11.0018921-11.4279175-20.9449463-25.3410645-30.5906372-43.480896c-16.6500854,24.9741821-26.2545776,55.65271-29.6473999,87.8063354c-14.0544434-6.6955566-28.0430298-16.006958-43.2173462-29.1954956c-6.5889282,29.256958-4.5701904,61.3094482,3.7672119,92.5178223c-15.84375-1.125061-32.5588379-4.7990723-51.8934326-11.8357544c4.338623,29.7123413,17.7377319,58.9492798,36.7437134,85.1224365C36.713623,256.8809204,20.0929565,259.3190308,0,259.6705933c14.7410889,26.2585449,37.8162842,48.8062744,65.0404663,66.4519653c-12.5509644,9.8029175-27.473877,18.2784424-46.6101685,26.0098267c23.0740967,19.1516724,52.5476685,31.9044189,84.135437,38.6452026c-8.1229858,13.2539673-18.8339844,26.1714478-33.5122681,39.8596191c28.3577271,9.59375,60.3822632,10.947998,92.2350464,5.9500122c-2.7976074,15.5120239-8.1959839,31.6315918-17.1373901,49.9624023c29.9902344-1.208374,60.4561768-11.4693604,88.4625854-27.6227417c2.9952393,15.5636597,3.7651367,32.6257935,1.9772949,53.0731201c76.3226929-33.6082764,137.3422852-135.1381836,130.6220703-232.7747192c48.8267212-8.3086548,84.3466187-25.1168823,104.7775269-37.0975342c14.6697388-8.0714722,23.2346802-20.607605,23.6450195-32.7702637C491.8909912,178.6800537,450.7996826,174.0947266,442.9309082,203.1722412z M357.0999756,171.1412354c10.5057068,3.0438843,10.8643188,18.5982208-1.4195557,20.9786987c-5.6325073-37.6866455-9.4448242-66.7025757,2.7792969-94.4071045C355.333313,152,409.666687,207.666626,472.4605713,224.1035767c1.3383179,1.6050415,1.4103394,3.559082-0.3411865,6.2364502c-31.4541626,20.4558716-69.6908569,33.9898071-107.4207764,40.2807007c-1.3327026-24.7962036-4.2641602-46.4598999-7.1307983-65.8613281C386.8333435,206.6666718,382.25,166.8125,357.0999756,171.1412354z"/></svg>