<?xml version="1.0" encoding="utf-8"?>
<!-- Generator: Adobe Illustrator 19.1.0, SVG Export Plug-In . SVG Version: 6.00 Build 0)  -->
<svg version="1.1" id="Layer_1" xmlns="http://www.w3.org/2000/svg" xmlns:xlink="http://www.w3.org/1999/xlink" x="0px" y="0px"
	 width="512px" height="512px" viewBox="0 0 512 512" style="enable-background:new 0 0 512 512;" xml:space="preserve">
<path d="M25.3868427,256.0005188c0,109.731781,89.6142273,199.0402222,199.7643585,199.0836182l-0.0103302,25.3868408
	C100.997818,480.4234619,0,379.7252197,0,256.0005188C0,132.2262268,101.0370712,31.5290203,225.2286835,31.5290203
	c79.523941,0,153.9821014,42.5066376,194.3142853,110.9321136L397.6724548,155.35289
	c-35.789093-60.7183151-101.8655396-98.437027-172.4437714-98.437027
	C115.0351639,56.915863,25.3868427,146.2243195,25.3868427,256.0005188z M408.8163757,260.8628235
	c-65.0021362,0-117.8851929,52.8830566-117.8851929,117.8851929c0,31.9256897,12.5715332,61.824646,35.4006653,84.1930542
	l17.7674866-18.131073c-17.9141541-17.5546875-27.781311-41.0160522-27.781311-66.0619812
	c0-51.0030212,41.4953308-92.4983521,92.4983521-92.4983521c33.630127,0,64.6571045,18.3087769,80.9742737,47.7800598
	L512,321.7329712C491.2141113,284.1878052,451.6773376,260.8628235,408.8163757,260.8628235z"/>
</svg>
