<svg version="1.1" xmlns="http://www.w3.org/2000/svg" xmlns:xlink="http://www.w3.org/1999/xlink" x="0px" y="0px" width="496px" height="512px"><path d="M199.5976715,184.0199585L35.2701149,359.74823c-5.0570183,5.4073486-13.1878834-2.1967468-8.1308632-7.6040955l163.9030762-175.2741394l92.0941772-157.3572083c-3.2102356-18.6356525-7.8701782-25.8832912-19.7974854-13.0277157L103.4376297,190.6752777L2.2342193,353.6127625c-6.8911467,28.632782,1.1587987,35.5525208,38.2409782,61.0465393c6.8676758,4.7214661,16.4529076,7.101593,27.4653244,3.7518311l4.9815979,61.9144897l13.905777,13.9058533L378.0773926,512c0,0,22.4038696-18.5410767,39.3998413-36.3096313c16.9960022-17.7685242,9.2705383-19.3136292,3.8627014-25.493988c-5.4078064-6.1803894-5.4078064-26.266571-5.4078064-37.8547363c0-2.7381897,1.1291504-5.4310608,2.8421631-7.9504395c5.9316101-6.4354248,16.212677-13.9994812,26.7308655-4.9838867c15.8031006,13.5454712,14.9546814,28.5745239,19.9871216,13.5570679c1.6936646-1.8637695,13.5609131-14.8470764,24.8079224-25.1567993c12.1444092-11.1323853,0.7464905-29.1346436,0.7464905-29.1346436l-177.105957-227.7076874c-4.0481567-31.3730545,3.3917542-31.7163086,13.1564331-49.5896683c7.1879578-13.1569366,5.1987305-22.3147202-2.1319885-26.1937332c-17.476532,35.889534-82.5415497,171.2519379-82.5415497,171.2519379L64.1519394,405.2533264l-13.3400841-6.0990295l162.3867493-160.4797974c2.9767456-2.8957672,18.0795593-16.5518646,14.3431702-15.8725128c-16.7632446,3.0478973-15.1304779,0.5442505-15.5615692-6.2488708l91.3898773-161.9916687c-6.7160339-0.6151009-11.884491-9.7902412-15.7991943-20.5847397l-87.2349396,149.0529785 M419.6477051,372.2294006c0.6452942,4.0871277,0.4624023,8.9073792-0.1355896,13.7354126l-241.18396-3.6777649c-63.8183441,27.1530151-36.1286469,15.6047974-94.8557129,27.8630676c16.4230728-10.9958191,27.5554428-39.3327637,73.2656708-81.8381958c48.6216888-44.3719788,110.7248383-99.7557831,119.4200287-128.8657227C377.0242004,336.0708313,416.4935303,352.6007385,419.6477051,372.2294006z"/></svg>