<svg width="513px" height="512px" viewBox="0 0 513 512" version="1.1" xmlns="http://www.w3.org/2000/svg" xmlns:xlink="http://www.w3.org/1999/xlink">
	<g id="Page-1" stroke="none" stroke-width="1" fill="none" fill-rule="evenodd">
		<g id="Documentation" transform="translate(-614.000000, -208.000000)">
			<g id="Apple-Icon-Touch" transform="translate(614.500000, 208.000000)">
				<rect id="Rectangle" fill="#000000" x="0" y="0" width="512" height="512" rx="41"></rect>
				<g id="Group-4" transform="translate(189.000000, 134.000000)" fill="#FFFFFF">
					<path d="M139.35,163 C128.25,179.2 123.45,187.9 86.25,187.9 L54.15,187.9 L54.15,119.8 L82.05,119.8 C96.15,119.8 107.85,121.3 115.05,125.5 C123.45,130.6 125.55,133.3 125.85,133.6 C125.85,133 124.95,124.3 124.95,107.2 C124.95,89.2 125.85,80.8 125.85,80.5 C125.25,81.1 122.85,83.8 115.05,88.3 C107.85,92.5 96.15,94 82.05,94 L54.15,94 L54.15,26.2 L89.25,26.2 C103.35,26.2 115.05,28.6 122.25,32.8 C130.65,37.9 132.45,40.6 132.75,40.9 C132.75,40.3 132.15,33.7 132.15,19.3 C132.15,6.1 132.45,0.4 132.45,0.4 L23.55,0.4 C7.35,0.4 0.75,0.1 0.75,0.1 L3.45,5.2 C9.75,17.2 10.95,18.4 10.95,105.7 C10.95,195.7 9.45,197.8 3.45,209.2 L0.75,214.3 C0.75,214.3 7.65,214 23.85,214 L135.45,214 L136.05,203.5 C137.85,174.7 139.35,163 139.35,163 Z" id="E"></path>
				</g>
			</g>
		</g>
	</g>
</svg>