<?xml version="1.0" encoding="utf-8"?>
<!-- Generator: Adobe Illustrator 19.1.0, SVG Export Plug-In . SVG Version: 6.00 Build 0)  -->
<svg version="1.1" id="Layer_1" xmlns="http://www.w3.org/2000/svg" xmlns:xlink="http://www.w3.org/1999/xlink" x="0px" y="0px"
	 width="512px" height="512px" viewBox="86 0 512 512" style="enable-background:new 86 0 512 512;" xml:space="preserve">
<path d="M88.2,281.9c73.9-22.1,131.8-74.5,182.2-118.7c22.8,12.4,28.3,17.9,55.2,33.1C298,223.2,191,322.6,112.4,337.1
	C91,333.7,81.3,292.2,88.2,281.9z M360.8,101.1c0,0,33.8,30.4,53.1,42.1c17.3-17.3,62.8-16.6,64.9-31.7c0.7-17.3-4.8-42.1-14.5-48.3
	C443.7,63.1,391.2,81,360.8,101.1z M594.7,231.5c-73.9,22.1-139.4,66.9-189.8,111.1c-24.8-13.8-24.2-17.9-50.4-35.9
	c27.6-26.9,128.4-118.7,218.8-132.5C594.7,177.7,601.6,221.2,594.7,231.5z M325.7,404.1c0,0-31.1-24.8-49.7-38
	c-25.5,15.9-73.2,24.8-73.9,41.4c-0.7,17.3,11.7,38.7,21.4,44.9C244.2,452.4,295.3,424.1,325.7,404.1z M202.1,119
	c-7.6-4.1,8.3-61.4,15.9-60c89.7,9.7,211.9,113.9,240.9,142.9c-23.5,17.3-28.3,17.3-53.1,38C378.8,207.4,266.3,134.2,202.1,119z
	 M481.7,394.4c7.6,4.1-11.7,60-19.3,58.7c-89.7-9.7-198.1-126.3-238.8-155.3c23.5-17.3,28.3-17.3,53.1-38
	C309.8,288.1,417.5,379.2,481.7,394.4z M552.1,263.5c0,0-35.5,16.4-66,38.4c24.4,8.3,78.2,43.7,90.4,34.5
	c12.7-11.7,23.6-36.6,21.2-47.9C587.8,276.6,576,277.8,552.1,263.5z M135.8,247.6c0,0,30-20.5,60.5-42.5
	c-27.2-7.6-72.7-34.8-93.9-28.3c-12.7,11.7-18.1,40.1-15.6,51.3C101.5,238.7,115.4,238.9,135.8,247.6z"/>
</svg>
