<?xml version="1.0" encoding="utf-8"?>
<!-- Generator: Adobe Illustrator 19.2.1, SVG Export Plug-In . SVG Version: 6.00 Build 0)  -->
<svg version="1.1" xmlns="http://www.w3.org/2000/svg" xmlns:xlink="http://www.w3.org/1999/xlink" x="0px" y="0px"
	 width="388px" height="512px" viewBox="0 0 388 512" style="enable-background:new 0 0 388 512;" xml:space="preserve">
<path d="M359.5526123,0c0,0,8.5743103,37.8983574-50.795166,66.0169754
	C270.314209,84.2245483,202.6951294,95.6474838,149.249649,96.9310913
	c-3.1265106,67.0201569-7.0747375,100.4251404-0.6311646,183.9443665
	c4.6769867,60.6216431,18.0755463,114.8568115,40.9611511,165.8047485l14.6933746,32.7104187l-21.2517242-28.8829956
	c-43.0520325-58.5115356-63.1395721-177.7254639-59.727562-354.3117981
	c-17.6803055-1.2393341-34.0909882-3.8314972-48.1374207-7.9461365
	C12.3088522,69.8398514,48.6411476,18.6962662,48.6411476,18.6962662C24.3924675,46.6417351,0,74.5050583,0,122.9728165
	c0,44.5724106,37.1343193,70.7342758,73.4595032,82.8156815c-1.7146301,20.0600433,0.6976166,44.8250275,3.8182068,66.8186493
	c-25.8025055-10.5930481-41.8093147-20.311615-45.8185043-59.1822357
	c-32.0984497,54.3488922-14.9909668,101.7879791,64.9095535,133.6373138
	c2.8542175,19.3075256,7.6577377,37.6644897,15.7038498,54.4402466
	c-14.6596985-2.568634-25.5139999-10.2984924-36.7040024-25.8036804
	c-0.0425262,43.2158508,18.1930084,73.1213379,68.7277527,80.182373
	c36.8578186,42.4074402,62.4637451,60.2302246,93.459198,55.3280334
	c17.8735046-2.8268433,40.8236542-22.6738892,47.8145294-49.600708
	c-32.3399963,31.2111206-50.2428589,23.3965454-60.395462-10.2536316
	c40.1129913-8.589447,62.8148346-33.0688477,48.9408417-90.928894
	c-12.6226501,19.1419373-31.2688141,33.6304626-55.3640289,43.9093933l1.974823-54.5383606
	c78.1536102-9.3407898,127.599472-53.9693604,108.5547943-147.9231873
	c-13.0678711,32.0831757-47.6321716,53.5361328-97.7628326,67.2912598l8.2333679-59.5583649
	C391.9284973,172.0371704,416.686615,79.3529739,359.5526123,0z"/>
</svg>
