<?xml version="1.0" encoding="utf-8"?>
<!-- Generator: Adobe Illustrator 19.1.0, SVG Export Plug-In . SVG Version: 6.00 Build 0)  -->
<svg version="1.1" id="Layer_1" xmlns="http://www.w3.org/2000/svg" xmlns:xlink="http://www.w3.org/1999/xlink" x="0px" y="0px"
	 width="430px" height="512px" viewBox="0 0 430 512" style="enable-background:new 0 0 430 512;" xml:space="preserve">
<path d="M5.9160643,45.5938873C48.3970451,6.337388,103.8252182,13.5008345,144.2755737,58.1730156
	c12.0436707,7.3063393,11.7805939,7.5694237,12.5791321-3.144783c1.8533173-15.8267021,8.1962585-30.4336033,29.864502-40.8767128
	c3.1448059,7.8619566,0.0000153,18.8632355,9.4343567,26.725193C200.8707428,18.8686943,216.5946503,7.8619561,240.1805267,0
	c-4.7171783,12.5791302-4.7171783,25.1582603,1.5723877,36.1595383
	c11.0067291-6.2841053,22.0134735-14.1460609,37.7264557-14.1460609
	c-11.9775085,20.7801361-13.9913635,37.2255287-6.2895508,39.3043213c4.8005676,1.2957191,7.861969,1.5723915,12.5791321-3.144783
	c44.304657-53.146492,116.2697754-45.8747559,138.3594971-11.0067406
	c-44.1913452,8.4722672-52.4049988,17.7345657-45.5993347,42.4491043c0.5230103,2.9726334,2.6098328,3.0775375,4.7171631,3.144783
	c31.4478455,3.144783,44.0269775,25.1582565,26.7306519,48.7441406
	c-11.7177124,17.8770447-12.1990356,48.8460083,1.5724182,55.0227509
	c33.5661316,23.825943,19.6013794,51.9130402-31.4478455,73.8914948
	c-10.9989014,4.7353821-18.8577881,12.5791321-18.8577881,22.0134583c0,23.5858765,3.1448059,67.6018982,3.1448059,67.6018982
	c15.7129822-10.9958191,25.1473389-25.1473389,28.2921143-42.443634
	c43.2124329,36.70047,27.5870667,104.826355-23.5858765,124.2080078
	c-13.9873047,3.7414856-23.4881592,42.7449646-75.4638367,50.3001099
	c-11.2220459,0.6161804-18.3826904,14.8844604-59.7399597,18.8687134c-31.4590302,3.0307007-61.3232727,0-88.0429993-17.2962952
	c-30.8548813-5.2791443-58.3301849-17.3790588-77.0471649-47.155365c0-1.5723877-3.144783-4.7171631-6.2786484-4.7171631
	C-0.6743126,419.5374451,1.5758883,346.5309143,37.3638916,317.590271
	c3.1447792,17.2962952,12.5791283,31.4478455,28.2921219,44.0160217
	c4.1759644-47.0782166,11.3954849-80.5080872-17.2853851-92.7601624
	c-27.7994385-11.8755188-47.0423737-25.576004-48.2951469-42.5786285
	c-1.7498835-23.7494354,27.5027275-28.7498779,27.8540592-43.8919525c0-7.8619537,0.0000019-17.2963104,0.0000019-25.1582642
	c0,0-11.0067406-22.0080109-14.1515217-29.8645096c-4.5468016-25.0604248,13.7325287-32.8094025,37.7373886-36.1650009
	C56.8813362,74.2695084,63.2691345,58.2949448,5.9160643,45.5938873z"/>
</svg>
