<?xml version="1.0" encoding="utf-8"?>
<!-- Generator: Adobe Illustrator 19.1.0, SVG Export Plug-In . SVG Version: 6.00 Build 0)  -->
<svg version="1.1" id="Layer_1" xmlns="http://www.w3.org/2000/svg" xmlns:xlink="http://www.w3.org/1999/xlink" x="0px" y="0px"
	 width="225px" height="225px" viewBox="-185 308.8900146 225 225" style="enable-background:new -185 308.8900146 225 225;"
	 xml:space="preserve">
<style type="text/css">
	.st0{fill:#020200;}
</style>
<path class="st0" d="M39.3671265,471.9568481l-25.2869263-50.6004639l25.2817383-50.5343018l0.6340332-1.267395v-1.4171143
	v-53.2475586v-6h-6h-53.25h-1.4151611l-1.2659912,0.6323853l-50.5668945,25.2584229l-50.5688477-25.2584229l-1.2659302-0.6323853
	h-1.4151611H-179h-6v6v53.2475586v1.4171143l0.6340332,1.267395l25.2818604,50.5349731l-25.2832031,50.6001587L-185,473.2235107
	v1.4155273v53.2431641v6h6h53.2479858h1.4176636l1.2677612-0.6344604l50.5645752-25.307373l50.5625,25.307312l1.2677612,0.6345215
	h1.4177246H33.999939h6v-6L40,474.6390381v-1.4157715L39.3671265,471.9568481z M2.4251099,416.4331665l-69.9602051-69.9777832
	l93.2884521-23.2947388L2.4251099,416.4331665z M-147.4309082,416.4013062l-23.3222656-93.2405396l93.3021851,23.2990723
	L-147.4309082,416.4013062z M-147.43396,426.3275757l69.9608154,69.9594727l-93.2806396,23.2971191L-147.43396,426.3275757z
	 M2.4244385,426.3289185l23.3283081,93.255127l-93.2838135-23.2970581L2.4244385,426.3289185z"/>
</svg>
