<?xml version="1.0" encoding="utf-8"?>
<!-- Generator: Adobe Illustrator 19.1.0, SVG Export Plug-In . SVG Version: 6.00 Build 0)  -->
<svg version="1.1" id="Layer_1" xmlns="http://www.w3.org/2000/svg" xmlns:xlink="http://www.w3.org/1999/xlink" x="0px" y="0px"
	 width="512px" height="512px" viewBox="0 0 512 512" style="enable-background:new 0 0 512 512;" xml:space="preserve">
<style type="text/css">
	.st0{fill:#181816;}
</style>
<path class="st0" d="M462.2401733,104.4252396c5.7120361-8.2090607,8.3909912-18.6388245,6.2125854-29.7143936
	c-5.5230713-28.0800056-38.3560791-40.4832535-61.3154297-24.7016258
	c-77.3523254-56.3316574-185.0975952-69.9380264-279.426239-15.5564919
	c-170.2814789,98.1691742-170.2814026,344.9245911,0,443.093689S512,452.3379517,512,255.9996033
	C512,197.7630463,493.1708984,145.9462738,462.2401733,104.4252396z M137.5794678,460.5043335
	c-157.1828461-90.6176147-157.1829224-318.3918152-0.0000763-409.0095215
	c86.4930878-49.8642578,185.2037201-37.7990532,256.4998779,13.3306808
	c-10.2341614,20.2450409-1.0960693,46.7863541,22.558136,54.7668991c10.842865,3.6582794,21.6942749,2.3874741,30.7000427-2.1959076
	c27.9764099,38.1050873,44.9702454,85.4559021,44.9702454,138.6031342
	C492.3076782,437.2349548,294.7623291,551.1220703,137.5794678,460.5043335z M137.8461456,255.9996033
	C137.6303558,181.5180206,172.0621338,138.1435394,256,137.8457642
	c76.9052124-0.2728271,118.1027527,37.4759369,118.1538391,118.1538391
	C374.2000732,329.0175781,340.2845764,375.0753479,256,374.1534424
	C170.3216248,373.2163086,138.0509796,326.7004089,137.8461456,255.9996033z"/>
</svg>
