<svg version="1.1" xmlns="http://www.w3.org/2000/svg" width="512px" height="512px"><path d="m0 0v512h512v-336.20117l-180.24609-175.79883h-331.75391zm330.39062 30.835938l147.89454 142.40429h-148.56055l0.66601-142.40429zm-240.49023 15.402343h17.380859l-55.0625 118.11328h-17.314453l54.996094-118.11328zm41.499999 30.785157h14.29883v31.939452l28.00586-16.898437 6.39062 13.093747-27.75195 16.0625 27.75195 16.15625-6.39062 13.0918-28.00586-17.08203v31.93945h-14.29883v-31.93945l-28.08984 17.08203-6.392581-13.0918 28.091801-16.15625-28.091801-16.0625 6.392581-13.093747 28.08984 16.898437v-31.939452zm105.14844 0.507812h14.30078v31.93945l28.00391-16.898434 6.39257 13.093754-27.7539 16.0625 27.7539 16.15625-6.39257 13.09179-28.00391-17.08203v31.93945h-14.30078v-31.93945l-28.08789 17.08203-6.39258-13.09179 28.0918-16.15625-28.0918-16.0625 6.39258-13.093754 28.08789 16.898434v-31.93945zm-105.14844 110.0625h14.29688v31.93945l28.00585-16.90039 6.39258 13.09375-27.7539 16.0625 27.7539 16.15625-6.39258 13.09375-28.00585-17.08594v31.94141h-14.29688v-31.94141l-28.08984 17.08594-6.392581-13.09375 28.089841-16.15625-28.089841-16.0625 6.392581-13.09375 28.08984 16.90039v-31.93945zm256.00586 44.16211c25.89821 0.40848 42.5929 7.99549 55.04687 21.92187 3.69734 3.74643 6.7086 7.7858 12.36915 16.55469l-37.48047 24.04883c-4.728-10.17588-12.54807-16.55548-20.82618-19.32031-12.84255-3.89368-29.05639 0.34314-32.41015 13.92187-1.16153 4.18814-0.91504 8.08243 0.93359 14.98633 5.20248 11.87729 22.67487 17.03016 38.34766 24.22852 45.12064 18.30674 60.35123 37.90563 64.09766 61.26757 3.59917 20.10635-1.23368 33.83212-1.57032 35.09375-15.2966 57.32376-109.48114 58.79578-146.55273 21.16797-7.8364-8.85071-12.74293-13.48013-17.42188-23.70507l38.88672-22.42969c10.42124 16.01636 20.05767 24.81879 37.38281 28.41797 23.50921 2.86298 47.16584-5.20276 41.86524-30.16797-5.44788-20.40082-48.13229-25.35822-77.1875-47.16602-29.49695-19.81186-36.40095-67.94234-12.17188-95.44336 8.08179-10.17587 21.85694-17.76581 36.30274-21.41406 5.00614-0.63803 10.07782-1.30922 15.08398-1.94727 1.80982-0.03681 3.57814-0.04285 5.30469-0.01562zm-159.79102 2.76367h48.08204s0.24539 88.06458 0 131.97461c0.0982 26.91208 2.03308 51.16575-8.47461 71.48633-7.84705 15.17533-21.95548 25.41452-38.64258 30.27344-25.65236 5.88959-50.17591 2.53537-68.4336-8.42579-12.22086-7.49283-21.75853-19.0263-28.2207-32.31054l38.9375-23.85352c4.88701 7.64789 11.6366 19.58606 20.40039 22.72461 8.23137 2.94788 26.42106 4.63064 33.43945-9.92969 4.28631-7.39468 2.91211-31.673 2.91211-57.99609v-123.94336z"/></svg>