<svg fill="none" xmlns="http://www.w3.org/2000/svg"><path d="M116.509 0H39.465C17.669 0 0 17.669 0 39.465v77.044c0 21.795 17.669 39.464 39.465 39.464h77.044c21.795 0 39.464-17.669 39.464-39.464V39.465C155.973 17.669 138.304 0 116.509 0z" fill="#00DDB3"/><path d="M118.543 34.934c-26.848 0-36.797 19.17-44.797 34.57l-5.227 9.853c-8.47 16.332-14.8 26.26-31.11 26.26a7.702 7.702 0 0 0-5.453 2.258 7.708 7.708 0 0 0 .003 10.902 7.725 7.725 0 0 0 5.45 2.262c26.859 0 36.808-19.171 44.808-34.57l5.216-9.853c8.481-16.333 14.811-26.26 31.11-26.26a7.705 7.705 0 0 0 5.46-2.255 7.71 7.71 0 0 0 2.262-5.456 7.725 7.725 0 0 0-7.722-7.71z" fill="#fff"/></svg>
