<?xml version="1.0" encoding="utf-8"?>
<!-- Generator: Adobe Illustrator 19.1.0, SVG Export Plug-In . SVG Version: 6.00 Build 0)  -->
<svg version="1.1" xmlns="http://www.w3.org/2000/svg" xmlns:xlink="http://www.w3.org/1999/xlink" x="0px" y="0px" width="512px"
	 height="512px" viewBox="0 0 512 512" style="enable-background:new 0 0 512 512;" xml:space="preserve">
<style type="text/css">
	.st0{display:none;}
	.st1{display:inline;}
	.st2{font-family:'github-octicons';}
	.st3{font-size:150.5017853px;}
	.st4{display:inline;fill:none;stroke:#000000;stroke-width:10;}
	.st5{fill:none;stroke:#000000;stroke-width:10;}
</style>
<g id="Source" class="st0">
	<text transform="matrix(1 0 0 1 53.672348 182.5198517)" class="st1 st2 st3"> </text>
	<path class="st4" d="M242.0546875,333.5000916v73.282135c-0.0996094,2.6464844-1.0292969,4.8505859-2.7929688,6.6142578
		s-3.9677734,2.6933594-6.6142578,2.7929688H119.7714844c-2.6455078-0.0996094-4.8500977-1.0292969-6.6137695-2.7929688
		s-2.6958008-3.9677734-2.7924805-6.6142578V312.71875c0.0966797-2.6455078,1.0288086-4.8496094,2.7924805-6.6132812
		s3.9682617-2.6943359,6.6137695-2.7929688h92.7287445"/>
	<polygon class="st1" points="138.5844727,378.5634766 166.8037109,350.3447266 138.5844727,322.125 129.1777344,331.53125 
		147.9907227,350.3447266 129.1777344,369.1572266 	"/>
	<rect x="166.8037109" y="369.1572266" class="st1" width="37.625" height="9.40625"/>
	<polygon class="st1" points="210.8193359,336.7667236 210.8192139,305.5476074 201.4129639,305.5476685 201.4130859,346.1728516 
		240.4285278,346.1729736 240.4285278,336.7667236 	"/>
	<path class="st1" d="M442.5556641,322.2724609v103.4697266H329.6796875V294.0527344h84.6572266L442.5556641,322.2724609z
		 M433.1494141,331.6787109l-28.21875-28.2197266h-65.8447266v112.8769531h94.0634766V331.6787109z M395.5244141,331.6787109
		h-47.0322266v-9.40625h47.0322266V331.6787109z M348.4921875,350.4912109h75.2509766v9.40625h-75.2509766V350.4912109z
		 M348.4921875,369.3046875h75.2509766v9.40625h-75.2509766V369.3046875z M348.4921875,388.1171875h75.2509766v9.40625h-75.2509766
		V388.1171875z"/>
	<polygon class="st1" points="247.0546875,333.4596558 212.6021729,298.3125 198.7844238,298.3125 247.0546875,346.5844116 	"/>
	<line class="st5" x1="212.5002289" y1="303.3125" x2="242.0546875" y2="333.5000916"/>
</g>
<g id="Outlined">
	<g>
		<polygon points="120.0389252,323.9796448 222.0101776,222.0101776 120.0389252,120.0371628 86.0473328,154.0269928 
			154.0287476,222.0101776 86.0473328,289.9898376 		"/>
		<rect x="222.0101776" y="289.9898376" width="135.9593048" height="33.9898262"/>
		<path d="M387.5045776,33.9898262H52.0575104l-0.6740112,0.0141144
			c-14.0183334,0.5222702-26.4663296,5.8367119-36.0012665,15.3716469
			C5.8402371,58.9175835,0.5240334,71.3708725,0.012351,85.3874435L0,425.9491272l0.012351,0.6599121
			c0.5116824,14.0200806,5.8261218,26.4733887,15.3698807,36.0153809
			c9.5278788,9.5314026,21.9758759,14.8458252,35.9959755,15.3716431l408.9013062,0.0140991l0.3387451-0.0140991
			c14.0218811-0.5258179,26.4681091-5.8402405,35.9977417-15.3716431
			c9.5278931-9.5278931,14.8440857-21.9741211,15.3716431-35.9942322l0.0101624-218.2102509L512,208.4221344v-47.4267731
			L387.5045776,33.9898262z M475.864624,172.9465637l-94.8023987-0.0009918l-0.0004272-95.4660492L475.864624,172.9465637z
			 M471.0636292,437.075592c-3.0771484,3.0771484-6.6359863,4.5627747-11.5075378,4.7992249H52.4403877
			c-4.8698044-0.2364502-8.4286423-1.7220764-11.5057945-4.7992249c-3.0842094-3.0842285-4.5698547-6.6412964-4.7992287-11.4969788
			V86.4178619c0.2293739-4.85569,1.7150192-8.4092331,4.7992287-11.4934464
			c3.0789146-3.0771484,6.6359901-4.5663223,11.5005035-4.7992249h294.6368713l0.0004578,136.8097534l128.7922058,0.0004425
			v218.6326294C475.6282043,430.4378357,474.1408081,433.9984436,471.0636292,437.075592z"/>
	</g>
</g>
</svg>
