<?xml version="1.0" encoding="utf-8"?>
<!-- Generator: Adobe Illustrator 19.2.1, SVG Export Plug-In . SVG Version: 6.00 Build 0)  -->
<svg version="1.1" xmlns="http://www.w3.org/2000/svg" xmlns:xlink="http://www.w3.org/1999/xlink" x="0px" y="0px"
	 width="512px" height="512px" viewBox="0 0 512 512" style="enable-background:new 0 0 512 512;" xml:space="preserve">
<path d="M453.546814,273.4485474h-81.4267578l0.000061-40.7133179h81.4266968V273.4485474z M453.546814,296.7133179h-81.4266968
	l-0.000061,40.7133789h81.4267578V296.7133179z M453.546814,104.7789307h-81.4266968l-0.000061,40.7133789h81.4267578V104.7789307z
	 M453.546814,168.7570801h-81.4266968l-0.000061,40.7133789h81.4267578V168.7570801z M453.546814,360.6914673h-81.4266968
	l-0.000061,40.7133789h81.4267578V360.6914673z M509.7894897,440.9549561
	c-2.3264771,12.0977173-16.8670044,12.3884888-26.5800171,12.7956543h-180.883606v52.3457031h-36.1185913L0,459.5667725V52.491333
	L267.7775879,5.9036255h34.5482178v46.3553734L476.986084,52.258667c9.8294067,0.4071655,20.647522-0.2907715,29.1973267,5.5835571
	C512.1740723,66.4501953,511.5928345,77.3846436,512,87.2722168l-0.2330322,302.7910767
	C511.4761353,406.9884033,513.3373413,424.2625122,509.7894897,440.9549561z M213.2798462,349.6988525
	c-16.0526733-32.5706787-32.3961792-64.9087524-48.3907471-97.4794312
	c15.8200684-31.6982422,31.4074707-63.5128174,46.9367065-95.3273926
	c-13.2027588,0.6397705-26.4055176,1.4540405-39.5501099,2.3846436
	c-9.8293457,23.9046021-21.2872925,47.1693726-28.9646606,71.8881836
	c-7.1539307-23.322937-16.6343384-45.7734375-25.300415-68.5147705c-12.7956543,0.697937-25.5912476,1.4540405-38.3869019,2.210144
	c13.4935913,29.7789307,27.8595581,59.1506958,40.9459839,89.104126
	c-15.4129028,29.0809326-29.8370361,58.5690308-44.784668,87.8245239
	c12.7374268,0.5234375,25.4749146,1.046875,38.2124023,1.2213745c9.0732422-23.1484375,20.3566895-45.4244995,28.2666626-69.038208
	c7.0957642,25.3585815,19.1353149,48.7978516,29.0228271,73.0513916
	C185.3039551,348.012207,199.2628174,348.8846436,213.2798462,349.6988525z M484.2601929,79.8817749H302.3258057
	l-0.000061,24.8971558h46.529541v40.7133789h-46.529541v23.2647705h46.529541v40.7133789h-46.529541v23.2647705h46.529541
	v40.7133179h-46.529541v23.2647705h46.529541v40.7133789h-46.529541v23.2647705h46.529541v40.7133789h-46.529541v26.8971558
	h181.9344482V79.8817749z"/>
</svg>
