<svg version="1.1" xmlns="http://www.w3.org/2000/svg" xmlns:xlink="http://www.w3.org/1999/xlink" x="0px" y="0px" width="512px" height="512px"><path d="M120.3348236,327.5324097L34.3710327,432.6499329L0,418.3826294c0,0,42.8138733-49.7201538,94.0423203-108.4735413C100.6975632,318.2386475,109.8298416,324.4775696,120.3348236,327.5324097z M435.1221619,103.9218216c-4.1993103-30.5255661-33.4326782-34.8863907-78.4941711,3.2301254c-2.4226685-33.5941925-28.7170715-33.2365341-55.3767395-17.145256c-14.5848694,8.8031158-28.8861389,22.6783447-46.0587311,39.850914c-16.9597778,16.9597778-53.2043762,57.2716827-93.1885376,102.5471497c8.1768494,4.9393616,14.9028625,12.0140076,19.363205,20.4967499l97.4928284-119.2152863c0,0,33.0014343-38.2445221,51.1598206-31.1109772c18.1584167,7.1335449,4.0114746,33.8027191,0.0724487,42.1355896c-12.6386108,26.7368622-50.1784973,91.4401245-50.1784973,91.4401245s57.8796387-84.6307526,92.1697083-115.7593002c4.5809631-4.1587219,20.4292908-18.2234726,32.587677-18.725769c10.5066528-0.4338989,19.1722717,8.6387711,12.4028015,26.5079117c-7.5729065,19.9897003-21.7357483,48.0268097-40.9479065,77.4530182c0,0-0.681366,5.2633057,6.0061646-4.1580048c20.3502197-28.6693268,69.9613647-98.3437805,98.9011841-100.6947098c11.6086121-0.9428406,17.3247986,9.8810883,15.0778809,22.3736496c-4.0209656,22.3553619-25.2919312,53.1780243-25.2919312,53.1780243c-1.0046082,1.4002533,0.289978,2.7940826,1.2971802,2.4319153C492.2202454,149.5746765,511.044342,131.9418335,512,108.3940353C512,108.3940353,510.3786316,46.1371651,435.1221619,103.9218216z M451.0985413,189.1763306c-10.3623657,0-18.7627258,8.4003601-18.7627258,18.7627258s8.4003601,18.7627258,18.7627258,18.7627258c10.3623962,0,18.7627563-8.4003601,18.7627563-18.7627258S461.4609375,189.1763306,451.0985413,189.1763306z"/></svg>