<?xml version="1.0" encoding="UTF-8" standalone="no"?>
<svg width="512px" height="512px" viewBox="0 0 512 512" version="1.1" xmlns="http://www.w3.org/2000/svg" xmlns:xlink="http://www.w3.org/1999/xlink">
    <!-- Generator: Sketch 40.1 (33804) - http://www.bohemiancoding.com/sketch -->
    <title>Slice 1</title>
    <desc>Created with Sketch.</desc>
    <defs></defs>
    <g id="Page-1" stroke="none" stroke-width="1" fill="none" fill-rule="evenodd">
        <g id="Group" transform="translate(23.000000, 3.000000)" fill="#000000">
            <path d="M137.597076,32.9216451 L222.782009,16.7942891 C225.535194,14.0662638 228.798869,11.5841436 232.530346,9.41503759 C242.943579,3.36342857 256.475008,0.0296541353 270.637774,0.0296541353 C278.898214,0.0296541353 286.699306,1.21083346 293.830318,3.34330104 L300.06815,2.16234586 C303.34418,1.51560902 306.804992,1.17299248 310.358195,1.17299248 C325.902977,1.17299248 339.230376,7.33239098 345.389774,17.449203 L449.47591,175.518617 C451.720241,179.368241 452.717293,183.217865 453.102256,187.025143 L437.792301,413.086617 C437.846195,426.394767 426.859368,437.458586 410.040361,440.896301 L146.26412,503.864602 C142.630075,504.380451 139.069173,504.765414 135.604511,504.834707 C119.871098,504.834707 106.33582,498.45203 100.218767,488.177383 L15.2498647,329.8 C13.3404511,326.477774 12.5320301,322.905323 12.3203008,319.178887 L0.0977443609,82.2306767 C0.0977443609,68.321985 11.3078496,56.9771429 28.3886316,53.5971729 L72.0937216,45.3228512 C74.3224987,43.406213 76.823934,41.6332687 79.5809323,40.0310977 C89.9941654,33.9794887 103.529444,30.6457143 117.692211,30.6457143 C124.496617,30.6457143 131.256497,31.4471893 137.597076,32.9216451 Z M162.288336,43.9441309 L212.948911,34.3499891 C212.520746,36.4946154 212.325491,38.686427 212.373714,40.908812 L212.366015,67.5443609 C212.435308,79.7207218 219.868932,90.9654737 232.753624,98.406797 C243.209203,104.446857 256.75603,107.769083 270.903398,107.769083 L270.726316,107.769083 C284.969925,107.869173 297.669835,104.404511 308.379489,98.2643609 C321.013955,90.9192782 327.612211,79.2164211 327.612211,66.9669173 L327.612211,40.131188 C327.612211,31.9525911 324.477138,23.9832376 318.400808,17.4213647 C324.844938,18.7917664 330.241771,21.7611092 332.666767,25.6873985 L436.587368,183.699068 C440.779609,190.751579 434.31994,198.41618 422.209023,200.814496 L143.057383,256.079699 C130.900271,258.485714 117.642165,254.716932 113.449925,247.668271 L17.1400301,85.7954286 C12.9593383,78.766015 19.4151579,71.1014135 31.5722707,68.6992481 L60.3958361,63.2406173 C59.694087,65.9289828 59.3630793,68.7004635 59.4243008,71.5210226 L59.4166015,98.1604211 C59.4858947,110.332932 66.9195188,121.577684 79.8042105,129.019008 C90.2597895,135.059068 103.806617,138.381293 117.953985,138.381293 L117.896241,138.381293 C132.13985,138.281203 146.133233,135.201504 156.334737,128.876571 C169.431158,121.265865 176.976421,109.805534 176.976421,97.3866466 L176.976421,70.7433985 C176.976421,60.7781728 171.521983,51.1211374 162.288336,43.9441309 Z M315.928602,276.494256 L284.292391,276.879218 C273.498045,277.206436 253.630135,287.088421 237.438617,303.441624 C221.485774,319.390617 209.394105,335.836211 209.286316,348.051068 L207.423098,388.075609 C207.423098,396.929744 208.193023,402.70418 213.197534,407.962767 C218.25209,412.967278 227.05618,416.43194 235.910316,415.662015 L216.542857,370.113263 L252.182677,362.082947 L291.714466,324.283489 L302.955368,288.585925 L343.103098,321.50791 L291.714466,324.287338 L305.792541,379.383158 L252.182677,362.090647 L236.002707,415.662015 L338.841564,408.536361 L346.309835,303.406977 C346.96812,294.190977 344.254135,288.031579 338.864662,282.996271 C333.548331,277.599098 326.680602,276.821474 315.928602,276.494256 Z M301.088301,22.7347368 C317.930406,32.358797 318.026647,48.1422556 301.473263,57.9664962 C284.91988,67.7907368 257.491308,67.6906466 240.649203,57.9664962 C223.784,48.230797 223.718556,32.4588872 240.452872,22.7347368 C256.994707,13.1684211 284.2,13.1684211 301.138346,22.7347368 L301.088301,22.7347368 Z M148.142737,53.3469474 C164.984842,62.9710075 165.081083,78.7544662 148.527699,88.5748571 C131.974316,98.3952481 104.545744,98.2990075 87.7036391,88.5748571 C70.8384361,78.8391579 70.7729925,63.0710977 87.5073083,53.3469474 C104.049143,43.5804511 131.369925,43.5804511 148.308271,53.3469474 L148.142737,53.3469474 Z" id="Combined-Shape"></path>
            <path d="M325.683549,199.186105 C310.808602,199.186105 296.572692,195.698346 285.605113,189.361865 C272.212271,181.62797 264.486075,169.979008 264.409083,157.390737 L264.416782,129.053654 C264.135759,116.211308 271.754165,104.327519 285.366436,96.4165414 C296.28782,90.0723609 310.508331,86.5730526 325.398677,86.5730526 C340.273624,86.5730526 353.885895,90.0377143 364.664842,96.5820752 C378.057684,104.281323 385.06785,115.830195 385.06785,128.557053 L385.06785,156.890286 C385.06785,169.740331 378.527338,181.620271 364.918917,189.527398 C353.989835,195.640602 340.404511,199.105263 325.77594,199.186105 L325.683549,199.186105 Z M357.785564,109.732391 C375.697865,120.126376 375.878797,136.679759 358.170526,147.196932 C340.377564,157.540872 311.397594,157.540872 293.489143,147.196932 C275.549895,136.845293 275.484451,120.072481 293.277414,109.732391 C310.897143,99.4 340.019549,99.4 357.72782,109.732391 L357.785564,109.732391 Z" id="Combined-Shape"></path>
            <path d="M170.978707,227.642526 C156.103759,227.642526 141.86785,224.154767 130.900271,217.818286 C117.507429,210.084391 109.781233,198.431579 109.70809,185.843308 L109.715789,157.510075 C109.430917,144.667729 117.053173,132.78394 130.665444,124.872962 C141.586827,118.528782 155.807338,115.029474 170.697684,115.029474 C185.572632,115.029474 199.184902,118.494135 210.348812,125.038496 C223.741654,132.737744 231.136782,144.286617 231.136782,157.013474 L231.136782,185.346707 C231.136782,198.196752 224.238256,210.076692 210.625985,217.98382 C199.643008,224.12782 186.034586,227.592481 171.021053,227.642526 L170.978707,227.642526 Z M203.080722,138.192662 C220.993023,148.586647 221.173955,165.14003 203.465684,175.657203 C185.672722,186.001143 156.692752,186.001143 138.784301,175.657203 C120.845053,165.305564 120.779609,148.532752 138.572571,138.192662 C156.192301,127.887218 185.264662,127.887218 202.972932,138.192662 L203.080722,138.192662 Z" id="Combined-Shape"></path>
        </g>
    </g>
</svg>