<?xml version="1.0" encoding="utf-8"?>
<!-- Generator: Adobe Illustrator 19.2.1, SVG Export Plug-In . SVG Version: 6.00 Build 0)  -->
<svg version="1.1" xmlns="http://www.w3.org/2000/svg" xmlns:xlink="http://www.w3.org/1999/xlink" x="0px" y="0px" width="512px"
	 height="512px" viewBox="0 0 512 512" style="enable-background:new 0 0 512 512;" xml:space="preserve">
<style type="text/css">
	.st0{display:none;}
	.st1{display:inline;}
	.st2{display:inline;fill:#FFFFFF;}
</style>
<g id="Source" class="st0">
	
		<ellipse transform="matrix(0.9771666 -0.2124745 0.2124745 0.9771666 -48.572464 60.4035301)" class="st1" cx="256.7541504" cy="256.1955566" rx="82.1881561" ry="65.1310806"/>
	<path d="M367.0664062,405.3990784c-7.6426086-35.148407-49.7949219-55.8241882-94.1513977-46.180603
		c-44.3515167,9.6434937-74.1123199,45.9580078-66.4716492,81.1064148
		c7.6425781,35.1483765,49.797821,55.8261719,94.1484375,46.1815796
		C344.9482117,476.8639832,374.7090149,440.5475769,367.0664062,405.3990784z M286.7583008,455.2633667
		c-17.8959961,0-32.4033051-14.506897-32.4033051-32.4042969c0-17.8916016,14.507309-32.3964844,32.4033051-32.3964844
		c17.8891907,0,32.3964844,14.5048828,32.3964844,32.3964844
		C319.1547852,440.7564697,304.6474915,455.2633667,286.7583008,455.2633667z"/>
	<g>
		<path class="st2" d="M293.9237976,381.5045471c23.4485779,0,42.5253906,19.0750732,42.5253906,42.5215149
			c0,23.4474792-19.0768127,42.523407-42.5253906,42.523407c-23.4464417,0-42.5214996-19.0759277-42.5214996-42.523407
			C251.402298,400.5796204,270.477356,381.5045471,293.9237976,381.5045471 M293.9237976,377.5045471
			c-25.6913757,0-46.5214996,20.828125-46.5214996,46.5215149c0,25.6932983,20.8301239,46.523407,46.5214996,46.523407
			c25.6953125,0,46.5253906-20.8301086,46.5253906-46.523407
			C340.4491882,398.3326721,319.6191101,377.5045471,293.9237976,377.5045471L293.9237976,377.5045471z"/>
	</g>
	<path class="st2" d="M263.9238281,214.8378906c-23.4464722,0-42.5215454,19.0750732-42.5215454,42.5214844
		c0,23.4475098,19.0750732,42.5234375,42.5215454,42.5234375c23.4485474,0,42.5253906-19.0759277,42.5253906-42.5234375
		C306.4492188,233.9129639,287.3723755,214.8378906,263.9238281,214.8378906z M249.7583008,284.5966797
		c-17.8959961,0-32.4033203-14.506897-32.4033203-32.4042969c0-17.8916016,14.5073242-32.3964844,32.4033203-32.3964844
		c17.8892212,0,32.3964844,14.5048828,32.3964844,32.3964844
		C282.1547852,270.0897827,267.647522,284.5966797,249.7583008,284.5966797z M263.9238281,303.8828125
		c-25.6914062,0-46.5215454-20.8301392-46.5215454-46.5234375c0-25.6933594,20.8301392-46.5214844,46.5215454-46.5214844
		c25.6953125,0,46.5253906,20.828125,46.5253906,46.5214844
		C310.4492188,283.0526733,289.6191406,303.8828125,263.9238281,303.8828125z"/>
</g>
<g id="Flattened">
	<path d="M413.2575989,269.165741c0,69.058136-56.1855469,125.2410278-125.2467651,125.2410278
		c-54.2130127,0-100.476059-34.6340637-117.8648224-82.934021c57.9154205,72.3098755,172.9409027,33.075531,171.5590668-57.5249634
		c-1.039032-68.1302185-58.4909973-103.5584717-116.5335083-93.0413055
		c18.4856567-10.7717133,39.9454956-16.9760132,62.8392639-16.9760132
		C357.072052,143.9304657,413.2575989,200.1108093,413.2575989,269.165741z M299.4580994,455.8923645
		C160.1619263,486.184082,27.7607994,421.2393494,3.7570171,310.8454285
		C-20.2408218,200.451355,73.2318039,86.39505,212.530838,56.1067963
		c139.3147736-30.2886333,271.7064819,34.6497879,295.7104492,145.043869
		C532.2451172,311.5449524,438.7724609,425.6072083,299.4580994,455.8923645z M288.0287781,125.9324036
		c-74.8159485-0.6562119-151.191803,65.5004578-143.2334442,143.2333069
		c1.628891,83.7024536,66.8040314,141.7134094,143.2334442,143.2392883
		C474.6120605,406.0383301,482.6797791,134.9577789,288.0287781,125.9324036z"/>
</g>
</svg>
