<svg version="1.1" xmlns="http://www.w3.org/2000/svg" xmlns:xlink="http://www.w3.org/1999/xlink" x="0px" y="0px" width="500px" height="512px"><path d="M471.2052917,471.2026978V249.9497528L360.582428,360.5726013L471.2052917,471.2026978z M354.0815735,354.071228l110.6228638-110.6223297H243.4499359L354.0815735,354.071228z M464.7059937,234.2562256L354.0815735,123.6245651L243.4499359,234.2562256H464.7059937z M232.3516998,232.3501434l110.6316681-110.6295776H121.7278137L232.3516998,232.3501434z M471.2052917,227.7538147V6.5003424L360.582428,117.1237106L471.2052917,227.7538147z M342.9833679,112.5268555L232.3516998,1.9029661L121.7278137,112.5268555H342.9833679z M221.2545013,0H0l110.631134,110.6228485L221.2545013,0z M27.7960758,40.7962456v221.2596893l110.6218185-110.6290741L27.7960758,40.7962456z M144.9192657,157.9261627L34.2964172,268.557312h221.2524261L144.9192657,157.9261627z M34.2964172,277.7520447l110.6218109,110.631134l110.6285553-110.631134H34.2964172z M27.7960758,284.2524109v221.2456665l110.6218185-110.6140137L27.7960758,284.2524109z M266.6450195,279.6555481L156.0164642,390.2861633h221.2529449L266.6450195,279.6555481z M156.0164642,399.4793396l110.6285553,110.6166382l110.6243896-110.6166382H156.0164642z M277.7453003,512h221.2529602l-110.62854-110.6166382L277.7453003,512z"/></svg>