<svg version="1.1" xmlns="http://www.w3.org/2000/svg" xmlns:xlink="http://www.w3.org/1999/xlink" width="731" height="512"><path d="M498.574 102.121l-4.604 2.879c-0.935-1.754-1.878-3.508-3.041-5.204-9.166-13.229-23.111-20.407-35.214-19.34 0.132-9.428-3.442-19.888-10.832-28.776-10.781-12.959-26.159-18.733-38.416-15.693 0.541-1.944 0.841-3.954 0.855-6.023h-0.007c0.117-16.372-17.447-29.887-38.986-29.974h-0.263c-21.43 0.044-38.883 13.164-38.993 29.448-0.007 0.899 0.234 1.732 0.329 2.61-10.781 0.672-22.446 7.083-30.668 18.126l-0.161 0.219c-7.126 9.684-10.035 20.758-9.048 30.391-10.7 0.249-22.505 6.073-31.188 16.57l-0.168 0.204c-1.476 1.813-2.748 3.706-3.925 5.628l-6.132-4.21-248.11 361.516 59.181 40.608 248.103-361.509-4.437-3.048c0.409-0.453 0.863-0.826 1.257-1.301 8.091-9.787 11.636-21.386 10.7-31.443 11.029-0.351 23.111-6.746 31.575-18.119 6.586-8.844 9.714-18.909 9.487-27.957 3.859 0.994 7.916 1.674 12.199 1.688 7.681 0.029 14.815-1.681 20.882-4.568-2.192 10.773 1.206 23.959 10.218 34.798l0.168 0.204c9.604 11.416 22.804 17.125 34.192 16.123-0.38 8.88 2.42 18.799 8.529 27.62l0.154 0.22c0.592 0.84 1.286 1.535 1.908 2.324l-6.418 4.006 232.33 371.843 60.869-38.014-232.322-371.851zM265.221 110.724c0.95-1.9 2.054-3.778 3.493-5.533l0.168-0.204c7.945-9.604 20.173-12.352 27.46-6.285s6.776 18.587-1.176 28.198c-0.796 0.965-1.666 1.813-2.543 2.638l-27.401-18.814zM337.031 77.804c-7.448 10.006-19.675 13.58-27.262 7.901-7.543-5.65-7.616-18.228-0.263-28.22l0.154-0.212c7.448-10.006 19.515-13.376 27.101-7.689s7.719 18.214 0.271 28.22zM368.854 47.216c-12.476-0.051-22.614-7.762-22.548-17.242 0.073-9.428 10.145-16.95 22.548-16.979h0.263c12.476 0.051 22.344 7.762 22.277 17.242s-10.065 17.030-22.541 16.979zM408.79 80.895l-0.168-0.204c-7.974-9.597-8.398-22.117-1.089-28.154 7.301-6.037 19.515-3.216 27.489 6.373s8.574 22.321 1.272 28.359c-7.287 6.008-19.522 3.121-27.503-6.373zM452.41 125.728l-0.154-0.219c-7.097-10.254-6.432-22.767 1.374-28.139 7.813-5.372 19.727-1.491 26.831 8.764 1.228 1.769 2.142 3.618 2.916 5.489l-28.139 17.571c-0.994-1.060-1.944-2.215-2.829-3.465z"></path></svg>