<svg version="1.1" xmlns="http://www.w3.org/2000/svg" width="465px" height="512px"><path d="M456.3508301,189.5074005c-0.6704102-10.3014221-9.2941589-14.2781067-19.5988464-6.9493713c-23.6082458-4.2415771-46.7815247-2.2466888-58.2112122-3.2081604c-25.0569763-3.5090179-45.9181519-16.77005-45.9181519-16.77005c3.0479126-4.0518799,1.5893555-12.8097229-17.980072-13.4114532c-5.3829041-1.7725067-10.9096985-4.3396759-16.1323547-6.4719086c1.7790527-3.7444916-0.434967-9.2745514-0.434967-9.2745514c7.9631653-2.1976318,9.1829834-12.5644531,6.0435181-18.6700897c10.1575317,0.274704,8.5419922-15.4292374,7.1390381-20.8677368c7.9631653-3.0184784,9.0619507-12.5284805,5.7655334-20.0436172c9.6081238-2.1943665,9.8828125-13.4539795,9.0619507-21.4138718c9.882843-0.5494041,8.5125732-17.8459816,8.5125732-21.417141c8.5158386-5.4908199,6.5928955-12.9045715,7.9304504-21.4956284c5.2488403-10.6284485-1.8869629-13.6469278-6.9199219-2.3219075c-5.3992615,9.814146-12.3257141,14.0982285-12.2635803,21.348465c2.4690552,4.1172981-18.3954163,10.1575279-11.8057556,23.0620956c-4.6699829,5.7655258-15.6483765,13.1792793-11.7469177,22.0188713c-1.9818115,4.3364105-15.9851685,14.4972076-9.9449463,24.1053238c-13.1759949,8.7872772-12.3911438,10.9064255-9.6081238,18.9448013c-3.7510376,2.4069366-7.5805359,6.0892792-9.7945557,10.1182861c-4.3135071-5.1278152-8.5125427-14.4841232-8.4504089-27.1237946c0-10.7102051-19.9455109,1.0399551-19.9455109,22.1856613c0,1.8182831-0.1864166,3.46978-0.4414978,5.0427856c-6.9003296,0.7946854-15.5371552,2.3121033-26.4239655,4.8858185c-0.3466644,0.238739-0.5134277,0.6082764-0.5951996,1.0334167c-0.4283905-1.5860901-0.7554474-3.2735596-0.9058685-5.0787659c-1.9033051-12.3944092-16.1356049-31.2639923-23.0784454-7.9598999c-3.5842438,8.5387421-5.6903076,14.3631134-6.9166718,18.9317322l0,0c0,0-1.0988159,0.73909-3.1296692,1.994873c-8.5648956,5.3044281-11.6487885,21.8651733-42.759079,32.3202972c-10.5008926,3.5286407-24.2001572,6.3607178-42.3797073,7.8323517c-31.2966461,2.5279083-91.2018509,56.6217957-95.2145004,108.2368317c-0.9254925,12.9634094,1.0137902,44.9239807,11.7599697,72.9602051c0.0065403,0.0195923,0.0098104,0.0457764,0.0163517,0.0653992c0.0490541,0.1373291,0.1046495,0.2648926,0.1569738,0.3989563c0.1700554,0.4382324,0.3368406,0.8731689,0.5101662,1.3016052c0.9156818,2.348053,1.8934984,4.5947571,2.9269104,6.7433167c6.1645021,13.1727295,14.5855017,24.8215027,25.9464989,32.3170471c5.7687912,4.4999084,10.9293137,7.3843079,14.297718,9.0325317c19.3176117,31.8820801,60.3107224,72.7705688,137.5975342,48.5932922c118.5644531-33.6316833,183.99646,45.1594543,191.5344543,50.6895142c11.1157227,11.2269287-28.7327881-97.5691528-113.1096191-146.4698181c-49.8817444-27.2153625-18.5687103-74.0917358-14.9942627-90.6459656c0,0,39.9858398,27.9838867,68.9606323-14.7817078c26.175415,6.7433472,43.7139893-4.7811432,66.2266846,3.3684082c13.6796265,5.9944458,71.1942444,2.3742371,49.8196106-29.7727203c13.440918-8.7742004,14.8602295-5.9355927,21.5839539-19.2947388C467.0479431,197.4018707,458.8493042,193.935379,456.3508301,189.5074005z"/></svg>