<svg version="1.1" xmlns="http://www.w3.org/2000/svg" width="466px" height="512px"><path d="M344.5 0c-12.07.085-46.08 70.63-72.04 126.7a46.72 46.72 0 01-8.704-27.01c-.64-12.42-23.23 5.013-19.97 27.16-1.451-.746-26.88 4.864-26.88 4.907-4.906-19.84-17.11-34.5-24.53-11.99-14.93 35.48-18.77 63.64 2.453 97.79-19.37 86.57-148.2 129.1-134.8 199 3.733.085 34.88 74.28 135.2 43.92 118.5-33.64 184 45.14 191.5 50.66 11.09 11.22-28.74-97.55-113.1-146.4-49.92-27.22-18.56-74.11-15-90.66 0 0 39.98 27.94 68.95-14.8 26.18 6.74 43.71-4.757 66.22 3.392 13.65 5.973 71.16 2.368 49.79-29.76 0 0 19.48-17.38 21.57-19.33 3.627-16.21-4.586-19.63-7.082-24.11-.683-10.28-9.28-14.29-19.58-6.933-23.59-4.224-46.76-2.261-58.2-3.2-25.07-3.52-45.93-16.77-45.93-16.77-5.823-17.39-18.09-13.44-33.85-19.95 13.01-29.23 14.36-42.82 30.23-85.42 5.568-22.46 22.21-57.28 13.76-57.21zM167 154.8c-21.33 22.02-44.91 22.27-80.64 28.24-27.73 4.992-78.01 52.2-85.86 101.2-.917 12.97-1.706 46.57 9.045 74.62 10.5 24.11 17.66 36.82 39.34 49.79-18.82-67.6 113-113.7 133.6-191h-.043c-17.6-25.6-16.11-39.25-15.44-62.78z"/></svg>
