<?xml version="1.0" encoding="utf-8"?>
<!-- Generator: Adobe Illustrator 19.1.0, SVG Export Plug-In . SVG Version: 6.00 Build 0)  -->
<svg version="1.1" xmlns="http://www.w3.org/2000/svg" xmlns:xlink="http://www.w3.org/1999/xlink" x="0px" y="0px"
	 width="512px" height="512px" viewBox="0 0 512 512" style="enable-background:new 0 0 512 512;" xml:space="preserve">
<path d="M256,0C114.6150742,0,0,114.6150742,0,256s114.6150742,256,256,256s256-114.6151428,256-256S397.3849182,0,256,0z
	 M380.8113403,434.5430298c-1.4381714-16.783905-4.2497559-59.711853,1.0134888-93.2096863
	c2.6433105-16.8234253,24.0941162-34.1333313,30.1176453-42.1647034
	c-41.4954224-20.7477417-46.6880493,20.9230347-77.6365967,64.2509766
	c-10.9506226-175.7012939,47.4259949-116.6012268,38.871582-207.0963287
	c-6.7394104-71.2949142-26.1636658-68.6795959-26.1636658-68.6795959s-0.9827881,52.4635925-18.5325928,82.851593
	c-11.7204285,20.2942352-33.687439,18.6384735-42.5159302,39.7905579
	c-13.2288818,31.6947327-7.0860291,74.1303864-19.9260559,44.7102356
	c-3.3463745-20.0784302-29.9895782-33.2089386-39.0640869-48.7143402
	c-47.748291-81.5863342,4.1744385-140.5803223,4.1744385-140.5803223
	c4.0473022-8.6395226,3.1013489-12.8697891-2.8230286-12.7038612
	c-71.6356049,23.643261-63.6134796,139.1977997-56.1087036,163.0327301
	c26.7582092,84.9831543,11.4794006,98.4460144,8.4692383,100.9249878
	c-5.6889038,4.6849976-10.4841309-20.5880432-28.4256134-37.8650513
	c-15.6321716-15.0531921-22.5741425-43.9617157-23.6652527-68.3153992
	c-0.170166-3.7989502-2.9348068-17.0219879-8.3903275-3.1734009
	c-22.6441727,57.4814453-11.0259781,100.2332764,6.6228561,132.3933105
	c26.1229858,47.6018372,17.2851105,79.474884,2.4398956,93.1946106C74.1087036,393.6668396,38.1627464,329.0338135,38.1627464,256
	c0-120.3082123,97.5290375-217.8372498,217.8372498-217.8372498S473.8372498,135.6917877,473.8372498,256
	C473.8372498,329.8764648,437.0540466,395.1530762,380.8113403,434.5430298z"/>
</svg>
