<?xml version="1.0" encoding="utf-8"?>
<!-- Generator: Adobe Illustrator 19.1.0, SVG Export Plug-In . SVG Version: 6.00 Build 0)  -->
<svg version="1.1" id="Layer_1" xmlns="http://www.w3.org/2000/svg" xmlns:xlink="http://www.w3.org/1999/xlink" x="0px" y="0px"
	 width="512px" height="512px" viewBox="0 0 512 512" style="enable-background:new 0 0 512 512;" xml:space="preserve">
<path d="M159.1499023,76.959465v364.3338013h42.9504395V330.3217468h90.046936
	c31.3231201,0,56.4898987-25.1667786,56.4898987-56.4898682v-140.317749c0-31.3230972-25.1667786-56.5546646-56.4898987-56.5546646
	H159.1499023z M321.4287415,380.5278015c-18.6046143,0-33.686615,15.0820007-33.686615,33.686615
	s15.0820007,33.686615,33.686615,33.686615s33.686615-15.0820007,33.686615-33.686615
	S340.0333557,380.5278015,321.4287415,380.5278015z M311.4523315,399.0554199l25.9127808,15.547699l-25.9127808,14.7702637
	V399.0554199z M395.4745483,380.5278015c-18.6046143,0-33.6866455,15.0820007-33.6866455,33.686615
	s15.0820312,33.686615,33.6866455,33.686615c18.6045837,0,33.686615-15.0820007,33.686615-33.686615
	S414.0791321,380.5278015,395.4745483,380.5278015z M384.0081177,402.7480164h23.7102051v23.7102051h-23.7102051V402.7480164z
	 M74.3394775,0.5235205h363.3210449C478.7171021,0.5235205,512,33.8064308,512,74.8629913v362.2740479
	c0,41.0565491-33.2828979,74.339447-74.3394775,74.339447H74.3394775C33.2829132,511.4764709,0,478.193573,0,437.1370239V74.8629913
	C0,33.8064308,33.2829132,0.5235205,74.3394775,0.5235205z M202.1003418,118.2903671h12.5677032h39.0635376h39.4522247
	c6.9606934,0,12.567688,5.6070099,12.567688,12.5676956v144.0103149c0,6.9607239-5.6069946,12.5677185-12.567688,12.5677185
	h-39.4522247H214.668045h-12.5677032v-12.5677185V130.8580627V118.2903671z"/>
</svg>
