<svg version="1.1" xmlns="http://www.w3.org/2000/svg" xmlns:xlink="http://www.w3.org/1999/xlink" x="0px" y="0px" width="512px" height="512px"><style type="text/css">.st0{display:none;}.st1{display:inline;}.st2{display:inline;fill:#FFFFFF;}</style><g class="st0"><path class="st1" d="M512,256C512,59.6616783,297.9924927-63.7160072,127.7110519,34.4531631s-170.2813873,344.9245605,0.0000534,443.093689S512,452.3383484,512,256z"/><path class="st2" d="M451,324H62v-54c0-114,96.765625-191.3522949,193.0196686-191.9950409C352.2605896,77.355629,451,156,451,270V324z M380.3333435,273.3333435C380.3333435,263.3333435,368,150,256,150c-89.4682922,0-125.9193726,78.5953369-122.6666718,123.3333435H380.3333435z"/><rect x="25.333334" y="266.5" class="st1" width="73.8947372" height="13"/><rect x="413.3333435" y="266.5" class="st1" width="73.8947372" height="13"/><rect x="219.3333893" y="72.4999695" transform="matrix(-4.955033e-08 1 -1 -4.955033e-08 335.2807312 -177.2807922)" class="st1" width="73.8947372" height="12.9999933"/><rect x="356.5121155" y="129.3214569" transform="matrix(0.7071072 -0.7071064 0.7071064 0.7071072 19.2012291 317.9988403)" class="st1" width="73.8947296" height="12.9999971"/><rect x="82.1545944" y="129.3212585" transform="matrix(0.7071065 0.7071071 -0.7071071 0.7071065 130.9243622 -44.4366722)" class="st1" width="73.894722" height="12.9999914"/></g><g ><path d="M380.333313,273.1111145h-247C133.333313,227.7242126,166.5317383,146,256,146C368,146,380.333313,257.5830688,380.333313,273.1111145z M512,256c0,196.3383179-214.0074463,319.7159424-384.2888794,221.546875s-170.2814941-344.9245605-0.000061-443.093689S512,59.6616821,512,256z M451,324v-40.8888855h-41.666626V262.5h41.4993896c-1.8225098-47.4682617-20.8424072-88.4584351-49.5385742-119.6640625l-29.3642578,29.3642578l-14.8492432-14.8492432l29.2016602-29.2015991c-33.4263306-29.4012451-76.2097168-47.2977905-119.5015869-49.8238525v41.6218262h-21v-41.635376c-43.3592529,2.484436-86.1821899,20.2960815-119.5734253,49.7653809l29.2733765,29.2734375l-14.8492432,14.8492432l-29.4063721-29.4063721C82.7842407,173.8952026,63.9598999,214.8169556,62.1641235,262.5h41.0639648v20.6111145H62V324H451z"/></g></svg>