<svg xmlns="http://www.w3.org/2000/svg" width="512" height="512" viewBox="0 0 520 318"><path fill-rule="evenodd" d="M361.68 9.27C361.44 6.4 400.44 8 432.2 22.9c27.1 13.36 89 80.94 87 85.4-2.03 4.45-31.57 29.13-40.47 38.84-5.66 6.07-22.65 63.94-37.62 54.23-2.6-1.74-4.2-6.54-5.4-13.48-.9 4.7-2.3 11.4-2.5 13.4-.4 3-6.8 20-8.8 21.2-1.1.6-5 4.8-8.2 8.8-2.5 3.2-4.5 6.5-5.3 7.5-1.7 2.3-3.1 7.2-3.5 8.7-.3 1.5-3.6 15.6-4.6 17.1-5.9 12.9-14.6 20-15.5 21-.8 1-11.5 7.4-13.3 8.8-.9.8-6.7 3.3-11.6 5.3-10.4 10.4-25.3 4.4-36.8 10.3-20.2 10.1-40.8 7.3-63.1 7.3-21.4 0-42.5 3.2-62.7-6.9-10.3-5.5-23.4-1.5-33.5-8.5-4.1-1.7-15.5-6.5-17-7.6-1.7-1.4-12.4-7.8-13.3-8.9-.9-1-9.6-8.1-15.5-21.07-1-1.48-4.3-15.6-4.6-17.1-.33-1.5-1.8-6.5-3.5-8.76-.77-1-2.75-4.3-5.3-7.5-3.16-3.96-7.07-8.15-8.2-8.8-1.43-.86-5.03-9.5-7.17-15.6l-.26.5-.94-4.1c-.25-.9-.4-1.63-.5-2.06v-.2L85.46 182c-1.2 10-2.92 16.98-6.24 19.16-14.97 9.7-31.96-48.18-37.63-54.25C32.5 137.4 3 112.7 1 108.3c-2.03-4.46 59.87-72.04 87-85.4 32.73-15.37 73.2-16.6 70.4-13.37l-.95 1.18c17-4 49.06-10.7 77.67-10.7 41.34 0 47.3.4 47.3.4s49.34 2.7 79.32 9zm13.8 15.42C388.9 42.5 409.7 71.6 414 85.6c4.92 16.3 8.9 70.88 13.02 101.68-.35 1.5-3.9 16.75-5.52 20.22-1.7 3.65-16.28 21.9-17.36 24.96-1.1 3.04-4.92 7.64-5.72 11.97-.8 4.34-1.76 13.72-4.6 17.55-2.83 3.84-4.5 9.17-8.03 12.08-3.6 2.9-11.1 9.47-13.8 10.6-.5.2-1.1.53-1.9.95 3.1-9.7 5-24.1 5-45.4.4-23.4 1.6-34-18.6-58.7-13.9-17-33.8-33.2-59.8-41.1-2.8-8.6-15.6-17.9-33.7-17.9-17.7.3-30.4 9.2-33.5 17.6-26.8 7.8-47.1 24.2-61.2 41.6-20.3 24.7-18.6 34.4-18.6 57.9 0 23 2.1 38 5.7 47.9-2-1.12-3.9-2.12-4.9-2.53-2.7-1.17-10.2-7.74-13.8-10.64-3.53-2.9-5.2-8.24-8.04-12.1-2.84-3.82-3.8-13.2-4.6-17.54-.8-4.3-4.63-8.9-5.7-11.95-1.1-3-15.68-21.3-17.38-24.92-1.7-3.66-5.6-20.34-5.6-20.34v-4.96c3.9-31.4 7.7-81.2 12.35-96.64 4.4-14.4 26.1-44.5 39.5-62.2 25.15-12 87.02-14.4 87.02-14.4H282c43.6 0 78.8 10.54 93.13 15.6zM261.8 161.1c-.07 1.16-.12 2.36-.12 3.4 0 8.92 0 29.48 1.1 35.6h-.08c-17.8 0-45.3 24.28-45.3 53.82v1.62c.18-13.75 8.06-26.3 17.42-35.63 10.45-7 22.4-11.3 29.1-11.3 5.6 0 14.7 3.3 23.77 8.6 10.5 9.6 20.1 23.3 20.3 38.4V254c0-29-25.8-52.3-43.6-53.75 1-6.4.5-27.6.5-35.7-.2-1.2-.3-2.45-.4-3.6-.3.17-.5.33-.5.5 0 .05-.2.2-.8.2h-.7c-.7 0-.7-.16-.7-.2 0-.07-.1-.17-.3-.3zm5.67-3.5c10.68-.76 20.53-3.4 23.45-10.46 3.3-8-8.93-18.67-27.78-18.67-18.85.33-30.7 11-27.4 18.66 2.9 6.98 12.55 9.64 22.88 10.42.25-.07.46-.14.63-.24 2.43-1.6 3.64-6.4 3.64-6.4s.8 4.9 4 6.5c.1.1.3.2.5.3zm106.08 5.68c19.66 0 35.6-15.93 35.6-35.6s-15.94-35.6-35.6-35.6c-19.66 0-35.6 15.94-35.6 35.6 0 19.68 15.94 35.6 35.6 35.6zm-9.3-42.1c5.13 0 9.3-4.14 9.3-9.3 0-5.12-4.17-9.3-9.3-9.3-5.15 0-9.3 4.18-9.3 9.3 0 5.16 4.15 9.3 9.3 9.3zm-213.62 42.1c19.67 0 35.6-15.93 35.6-35.6s-15.93-35.6-35.6-35.6c-19.66 0-35.6 15.94-35.6 35.6 0 19.68 15.94 35.6 35.6 35.6zm9.3-42.1c5.15 0 9.3-4.14 9.3-9.3 0-5.12-4.15-9.3-9.3-9.3-5.13 0-9.3 4.18-9.3 9.3 0 5.16 4.17 9.3 9.3 9.3zm158.6-4.02s-23.87-25.1-55.83-25.9h.8c-32.36.8-55.82 25.9-55.82 25.9 27.9-19.44 51.78-19.03 55.83-19.03-.4 0 27.1-.4 55.1 19.02zM172.48 59.32c10.52-2.02 27.92-2.43 41.67 2.02 17.4 6.07 3.24 28.33 6.88 29.54 3.64 1.2 8.5-15.4 40.86-13.78 32.7 1.62 36.4 16.2 40.8 13.76 4.4-2.43-4.5-40.47 44.5-31.57 0 0-51.4-13.8-49 23.4 0 0-29.6-22.7-70.8-2.5.4 0 10.9-34.8-55.1-21.1zm48.14 121.8c1.8 0 3.24-1.45 3.24-3.23 0-1.8-1.45-3.3-3.24-3.3-1.78 0-3.23 1.4-3.23 3.2 0 1.7 1.4 3.2 3.2 3.2zm-18.6 19.43c1.78 0 3.23-1.45 3.23-3.24 0-1.8-1.45-3.2-3.24-3.2-1.7 0-3.2 1.5-3.2 3.3 0 1.8 1.5 3.3 3.3 3.3zm-6.07-19.43c1.78 0 3.23-1.45 3.23-3.23 0-1.8-1.45-3.3-3.23-3.3-1.8 0-3.24 1.4-3.24 3.2 0 1.7 1.5 3.2 3.3 3.2zm103.56 0c1.8 0 3.3-1.45 3.3-3.23 0-1.8-1.4-3.3-3.2-3.3-1.7 0-3.2 1.4-3.2 3.2 0 1.7 1.5 3.2 3.3 3.2zm18.7 19.43c1.8 0 3.3-1.45 3.3-3.24 0-1.8-1.4-3.2-3.2-3.2-1.8 0-3.2 1.5-3.2 3.3 0 1.8 1.5 3.3 3.3 3.3zm6.1-19.43c1.8 0 3.3-1.45 3.3-3.23 0-1.8-1.4-3.3-3.2-3.3-1.8 0-3.2 1.4-3.2 3.2 0 1.7 1.48 3.2 3.2 3.2z"/></svg>