<svg xmlns="http://www.w3.org/2000/svg" width="512" height="512" viewBox="0 0 519 319"><path fill-rule="evenodd" d="M360.78 9.5c-.24-2.86 38.76-1.27 70.53 13.64 27.2 13.36 89 80.94 87 85.4-2 4.44-31.5 29.12-40.4 38.83-5.6 6.07-22.6 63.94-37.6 54.23-2.6-1.74-4.2-6.54-5.4-13.48-.9 4.72-2.3 11.4-2.5 13.4-.4 3.04-6.8 20.05-8.8 21.25-1.1.66-5.02 4.85-8.2 8.8-2.53 3.2-4.52 6.5-5.3 7.5-1.72 2.28-3.16 7.25-3.52 8.75-.34 1.5-3.6 15.64-4.63 17.1-5.9 12.92-14.6 20-15.5 21.04-.9 1.03-11.54 7.46-13.3 8.83-1 .7-6.77 3.3-11.6 5.3-10.5 10.4-25.33 4.5-36.8 10.3-20.22 10.1-40.85 7.3-63.1 7.3-21.45 0-42.5 3.2-62.7-6.9-10.34-5.5-23.42-1.5-33.6-8.5-4.1-1.7-15.54-6.5-17-7.6-1.73-1.4-12.4-7.8-13.3-8.9-.9-1.08-9.56-8.1-15.46-21.1-1-1.45-4.3-15.58-4.65-17.1-.37-1.5-1.8-6.46-3.54-8.73-.76-1.03-2.75-4.3-5.3-7.5-3.16-3.97-7.07-8.16-8.2-8.8-1.43-.87-5.02-9.5-7.17-15.63l-.2.5-1-4.05c-.3-.95-.45-1.66-.5-2.1v-.18l-4.44-18.9c-1.25 10-2.96 16.93-6.28 19.1-14.95 9.7-31.94-48.17-37.6-54.24-8.9-9.7-38.45-34.4-40.5-38.84C-1.9 104 60 36.42 87.1 23.06 119.86 7.7 160.3 6.5 157.5 9.76l-.92 1.13C173.58 6.8 205.6.2 234.2.2c41.35 0 47.3.34 47.3.34s49.35 2.7 79.33 8.92zm13.8 15.42C388 42.8 408.8 71.86 413.1 85.87c4.92 16.3 8.9 70.87 13.02 101.67-.34 1.48-3.9 16.74-5.52 20.2-1.7 3.66-16.28 21.92-17.36 24.97-1.1 3.1-4.92 7.7-5.7 12-.8 4.4-1.78 13.7-4.6 17.6-2.85 3.9-4.53 9.2-8.05 12.1-3.6 2.9-11.1 9.5-13.8 10.7-.5.2-1.1.5-1.9.98 3.1-9.76 5-24.13 5-45.4.4-23.5 1.6-34-18.6-58.7-13.9-17-33.7-33.2-59.6-41.1-2.4-8.8-15.4-18.43-33.9-18.43-18.1.3-30.9 9.55-33.7 18-26.77 7.74-47 24.2-61.08 41.5-20.24 24.7-18.6 34.4-18.6 57.87 0 22.98 2.17 37.97 5.75 47.8-2-1.14-3.9-2.14-4.84-2.54-2.63-1.17-10.2-7.7-13.7-10.64-3.55-2.9-5.2-8.22-8.06-12.06-2.82-3.84-3.8-13.2-4.6-17.56-.8-4.3-4.6-8.9-5.7-11.93-1.1-3.04-15.66-21.3-17.35-24.95-1.7-3.64-5.6-20.32-5.6-20.32v-4.92c3.88-31.4 7.7-81.2 12.36-96.6 4.4-14.3 26.1-44.43 39.5-62.2 25.12-12 87-14.3 87-14.3h47.7c43.8-.1 79 10.5 93.3 15.5zM261 159.82c-.1 1.6-.22 3.45-.22 4.96 0 8.92 0 29.5 1.1 35.6h-.08c-17.8 0-45.3 24.3-45.3 53.83v1.7c.18-13.7 8.06-26.3 17.42-35.6 10.46-7 22.4-11.3 29.1-11.3 5.6 0 14.7 3.2 23.77 8.6 10.5 9.6 20.1 23.3 20.3 38.4v-1.6c0-29-25.8-52.3-43.6-53.7 1-6.4.5-27.6.5-35.67-.2-1.75-.3-3.5-.4-4.97l-1.4.06-1.3-.03zm.84-31.6c16.75 0 27.62 9.48 24.68 16.6-2.94 7.1-13.8 9.17-24.68 9.47-10.58-.3-21.4-2.4-24.35-9.5-3-6.8 7.6-16.3 24.3-16.6zm110.8 35.34c19.67 0 35.6-15.94 35.6-35.6 0-19.68-15.93-35.62-35.6-35.62-19.65 0-35.6 15.94-35.6 35.6 0 19.68 15.95 35.62 35.6 35.62zm-9.3-42.08c5.14 0 9.3-4.17 9.3-9.3 0-5.15-4.16-9.32-9.3-9.32-5.13 0-9.3 4.17-9.3 9.3 0 5.15 4.17 9.32 9.3 9.32zm-213.6 42.08c19.66 0 35.6-15.94 35.6-35.6 0-19.68-15.94-35.62-35.6-35.62-19.67 0-35.6 15.94-35.6 35.6 0 19.68 15.93 35.62 35.6 35.62zm9.3-42.08c5.14 0 9.3-4.17 9.3-9.3 0-5.15-4.16-9.32-9.3-9.32-5.14 0-9.3 4.17-9.3 9.3 0 5.15 4.16 9.32 9.3 9.32z"/></svg>