<svg version="1.1" xmlns="http://www.w3.org/2000/svg" xmlns:xlink="http://www.w3.org/1999/xlink" x="0px" y="0px" width="512px" height="512px"><path d="M0,339.9529419V94.6673126h76.0830917l52.991478,91.4252014l-56.1289215,31.7196045l69.808197,122.1408234H98.0452271l-54.9053307-93.9038086v-53.4620972l32.0333366-19.7031708l-24.5348358-40.5671844H37.6493645v207.636261H0z M278.1429138,262.9079285l-44.0381317,77.0450134h43.6063995l26.464325-48.6618042l28.9396973,48.6618042h45.333374l-44.6103821-75.3180237l20.2920837-37.5619202l-22.4508057-36.5579681l-23.4880371,41.5410919l-26.5945435-41.5410919h-46.1968689L278.1429138,262.9079285z M337.723938,190.5150299l43.6063843,73.6881561l-19.8603516,35.4031982l24.6095581,39.3425598l26.9087524-46.9735107l86.3492737,147.0850525L512,446.8319092v-65.7762146l-67.6347046-115.7080383L512,147.0594177V65.1680908L412.8478088,237.434906l-28.9270325-46.9198761H337.723938z M132.2126312,230.9587097l17.7015991,29.7904968l52.8135529-30.2222443L132.2126312,230.9587097z M79.5395737,220.5968018l53.5365524-30.0817719h95.4159546l31.0857391,52.964325l-90.2350006,51.8095551l3.0222321,5.0404663h28.4952698v-13.6753845l46.08815-26.76828v47.0603638l-18.4563904,33.0068665h-79.8730774L79.5395737,220.5968018z"/></svg>