<svg version="1.1" xmlns="http://www.w3.org/2000/svg" xmlns:xlink="http://www.w3.org/1999/xlink" x="0px" y="0px" width="452px" height="512px"><style type="text/css">.st0{display:none;}.st1{display:inline;fill:#181816;}.st2{display:inline;fill:none;stroke:#FFFFFF;stroke-width:8;stroke-miterlimit:10;}.st3{fill:#181816;}</style><g class="st0"><path class="st1" d="M262.883606,119.4559631c-4.5739746-6.0488281-10.2400665-8.6765213-15.133728-8.6765213c-37.4644775,0-55.3636169,46.8340988-60.9760437,70.6350327l-26.220932,8.132782c-8.1257935,2.5483551-8.3824921,2.8050537-9.4489746,10.4617767l-22.0670319,170.2260437l165.6777649,31.0422668l89.7709961-19.4206848L352.7736206,167.34021l0,0c-0.2006836-1.4608765-1.4795532-2.2683105-2.5366821-2.3569946l-23.3832092-1.7432404l-17.2083435-17.0986786c-1.7035828-1.7035675-5.0290527-1.1855011-6.3195496-0.8051147l-8.6788635,2.6790466C289.4662476,133.1101685,280.0285645,118.657196,262.883606,119.4559631z M285.4897156,150.8482819l-14.0182495,4.3382568c0.1109619-9.5890808-0.7921753-18.3196869-3.339447-25.6585236C276.4188232,130.5688171,281.9378967,139.9967804,285.4897156,150.8482819z M261.6444397,158.2272949l-28.9536438,8.9658966c5.5751038-21.5162964,16.0252075-31.9080505,25.1614685-35.828598C260.1555786,137.1380615,261.75,145.5833282,261.6444397,158.2272949z M246.7207336,120.8281555c1.617218,0,3.246109,0.5484085,4.8049927,1.6218872c-12.0066528,5.6497803-24.8767548,19.8804016-30.3118286,48.2973022l-22.8861389,7.0873108C204.6939545,156.159668,219.8113708,120.8281555,246.7207336,120.8281555z M253.1732788,247.5105438c0,0-9.6986694-5.1760406-21.5863037-5.1760406c-17.4277191,0-18.3051758,10.9378357-18.3051758,13.6938782c0,15.0380859,39.2007141,20.7998657,39.2007141,56.0240479c0,27.7121277-17.5770721,45.5575562-41.2776642,45.5575562c-28.4402313,0-42.9835663-17.7007446-42.9835663-17.7007446l7.6147156-25.1591187c0,0,14.9493866,12.835083,27.5651245,12.835083c8.2424622,0,11.5959167-6.4898682,11.5959167-11.2318726c0-19.6166992-32.16008-20.4918213-32.16008-52.7242432c0-27.1287231,19.4720001-53.3823242,58.7777252-53.3823242c15.1454163,0,22.6271362,4.3382568,22.6271362,4.3382568L253.1732788,247.5105438z"/><path class="st2" d="M308.1610107,126.4296188l-14.3469849,293.4578857"/></g><g ><path class="st3" d="M321.7590027,65.0911484l27.7839355,27.6068344l41.3181458,3.0802841c1.8679504,0.1567078,4.1277161,1.5834427,4.4823303,4.1648178l56.0352478,379.0511475l-151.456543,32.7654724L321.7590027,65.0911484z M285.757843,512L0,458.4588623l38.992485-300.789856c1.884449-13.52948,2.3380623-13.9830933,16.6963654-18.4860229l46.3323822-14.3705902C111.9385147,82.7560043,143.5662994,0,209.7661438,0c8.6471405,0,18.6591034,4.6431279,26.741333,15.3314257c30.2951965-1.4114237,46.9716187,24.1270752,56.1259766,50.4643059l15.1674805-4.6819534L285.757843,512z M227.6171417,36.374012c-16.1438599,6.9275894-34.6091614,25.2899055-44.4604492,63.3092613l51.1612244-15.8427353C234.5043945,61.4985847,231.6870422,46.575798,227.6171417,36.374012z M122.4371033,118.4868011l40.4398193-12.5233536c9.6038818-50.2126923,32.3454132-75.3582916,53.5610962-85.3414764c-2.7544708-1.8968544-5.6327515-2.8658791-8.4904327-2.8658791C160.3986511,17.756094,133.6862183,80.1870346,122.4371033,118.4868011z M238.9074554,183.4248047c0,0-13.2201691-7.6657104-39.9822235-7.6657104c-69.4533386,0-103.8603897,46.3901978-103.8603897,94.3267212c0,56.9548035,56.8269882,58.5011292,56.8269882,93.1639099c0,8.3791199-5.9256744,19.8467407-20.4900818,19.8467407c-22.2920151,0-48.7076492-22.6796265-48.7076492-22.6796265l-13.4551697,44.4562378c0,0,25.6980057,31.2772522,75.9520035,31.2772522c41.8790741,0,72.9378357-31.532959,72.9378357-80.5003357c0-62.2412109-69.2678223-72.4223022-69.2678223-98.9946594c0-4.8699188,1.5504303-24.1971588,32.3452911-24.1971588c21.0054932,0,38.1430664,9.1461487,38.1430664,9.1461487L238.9074554,183.4248047z M251.682312,78.4674835l24.7702942-7.6657104c-6.2760925-19.1746368-16.0283508-35.8339005-30.6711731-37.6729469C250.2825317,46.0965157,251.8783722,61.5236053,251.682312,78.4674835z"/></g></svg>