<svg xmlns="http://www.w3.org/2000/svg" version="1.1" width="507" height="512" viewBox="0 0 507 512"><path d="m205.18063 1.6691302-151.38809 71.42281c-12.424959 14.34261-6.928058 34.02488 4.36949 44.55516l126.26856 75.3494c1.1084 11.98782-6.06254 21.1389-15.47062 23.74816l-117.81633-70.33828c-29.887351-17.15822-53.27673 3.71065-50.989037 28.70962l10.340087 148.64361c1.218977 29.51011 24.942748 29.75511 44.492706 21.70399l100.71521-60.69668c12.00703 6.22562 16.47815 12.36512 16.29045 25.15253l-109.03324 64.34001c-16.19492 11.08111-17.020326 31.37166-4.174641 41.12518l137.54614 95.38432c19.8478 5.49179 35.81481-8.13645 36.41364-26.07364l2.09927-145.81439c10.79809-10.04612 23.40648-8.21492 31.09195-1.82536l-1.97793 135.57917c-.20713 29.79271 23.56615 45.00339 50.353 29.7848l123.57001-83.25175c23.81048-18.61874 13.96741-39.47931-3.47979-49.37693l-102.91189-57.47266c-1.38636-10.72132 5.00006-24.48951 14.67464-26.65429l109.19685 62.82723c20.0157 10.07647 35.58553 1.31669 37.69491-16.96887l13.84191-166.83098c1.00529-14.23808-24.93973-28.63763-40.77027-18.49255l-127.93032 71.4228c-14.71813-6.07296-15.87225-12.66199-14.79229-21.95768l118.52773-66.13983c32.59488-15.69562 19.08534-49.94488.63604-58.52035l-133.89721-65.39161c-26.50206-13.40347-40.03979 7.9722498-40.99271 27.69862v118.21888c-11.40566 7.78134-19.94551 5.50878-29.6949-.26847l.72981-125.43397c-1.49251-13.96195-20.08713-31.32016-33.53312-24.15813zm-19.98165 73.49823 1.0202 45.18393-40.79049-24.35851zm137.85127 2.70951 41.01476 20.82542-42.47063 23.53312zm-86.7409 146.0664c10.0175 5.7635 23.28233 5.34587 33.93385 1.04277-1.4117 12.29598 5.30024 18.94727 13.21142 23.30147-9.63573 6.41667-15.46373 18.41409-16.55149 29.76107-9.31799-7.89806-22.58843-8.05552-31.20041-1.29438-.21542-11.22105-6.94044-22.13965-15.69303-29.11764 8.82622-6.68734 13.75967-11.26437 16.29966-23.69303zm-172.91018 5.32357 41.237199 24.79598-38.759247 21.13786zm377.83874 3.35657-1.85662 44.8475-41.03865-20.91738zm-270.12168 137.05526-.73707 50.2961-37.91366-24.03686zm159.31638 2.22989 37.68573 23.58993-38.5497 25.1105z"/></svg>
