<svg version="1.1" xmlns="http://www.w3.org/2000/svg" xmlns:xlink="http://www.w3.org/1999/xlink" x="0px" y="0px" width="405px" height="512px"><path d="M373.9510498,368.4347534c0,0,16.8380737-36.2610474-4.1607666-112.2711182c-23.2828369-84.2608643-112.2799683-137.2094116-112.2799683-137.2094116c70.1849365,107.8624268,39.2444458,174.2849121,33.2599487,187.12146c-14.5362549,0.8498535-195.4165039-153.8438721-195.4165039-153.8438721s83.7828369,117.2817993,120.5750122,145.5222168c2.8152466,2.142395-117.7598267-82.2247314-166.3085327-124.7358398c64.3598022,103.2589722,182.9518433,199.5773926,182.9518433,199.5773926s-12.9251099,19.8656616-74.8415527,24.9471436S46.0968018,369.3023071,8.0474854,347.6483765c78.4180298,112.5544434,171.5317383,123.585022,216.2205811,124.7358398c77.6035767,1.9830322,92.4054565-39.1647339,133.0574951-33.2687988C401.6957397,445.5426025,405,477.6861267,405,477.6861267V512H0V2h286l119,119v306.7084351C397.401886,403.5719299,387.7221069,384.1788635,373.9510498,368.4347534z"/></svg>