<svg version="1.1" xmlns="http://www.w3.org/2000/svg" width="512px" height="512px"><path fill-rule="evenodd" clip-rule="evenodd" d="M256 33.913C133.345 33.913 33.913 133.346 33.913 256c0 122.655 99.432 222.086 222.087 222.086 122.655 0 222.086-99.431 222.086-222.086 0-122.655-99.431-222.087-222.086-222.087zM0 256C0 114.615 114.615 0 256 0s256 114.615 256 256-114.615 256-256 256S0 397.385 0 256z"/><path fill-rule="evenodd" clip-rule="evenodd" d="M497.155 309.864L183.058 491.207l-8.478-14.685 314.096-181.343 8.479 14.685zM340.539 38.597L26.443 219.941l-8.478-14.685L332.06 23.912l8.478 14.685zM403.04 278.267a8.478 8.478 0 01-3.104 11.581L114.395 454.706a8.48 8.48 0 01-8.479-14.685l285.542-164.858a8.479 8.479 0 0111.582 3.104zM412.313 63.517A8.479 8.479 0 01409.21 75.1L123.668 239.956a8.478 8.478 0 01-11.581-3.103 8.478 8.478 0 013.103-11.582L400.731 60.414a8.479 8.479 0 0111.582 3.103z"/><path fill-rule="evenodd" clip-rule="evenodd" d="M178.852 197.04a8.478 8.478 0 0111.86-1.761l152.93 113.387a8.48 8.48 0 01-10.099 13.622L180.613 208.9a8.478 8.478 0 01-1.761-11.86zM235.955 164.072a8.48 8.48 0 0111.861-1.761l152.928 113.382a8.48 8.48 0 01-10.099 13.622L237.717 175.932a8.478 8.478 0 01-1.762-11.86zM112.531 227.683a8.478 8.478 0 0111.827-1.967L286.415 341.55a8.477 8.477 0 011.967 11.827 8.478 8.478 0 01-11.827 1.968L114.498 239.511a8.479 8.479 0 01-1.967-11.828z"/></svg>